<svg width="194" height="60" viewBox="0 0 194 60" fill="none" xmlns="http://www.w3.org/2000/svg">
<g clip-path="url(#clip0_2811_18999)">
<path d="M9.86717 0.0195312H1.71917C0.770399 0.0195312 0 0.788665 0 1.73966V8.65429C0 9.6015 0.770399 10.3706 1.71917 10.3706H9.86717C10.8159 10.3706 11.5863 9.6015 11.5863 8.65429V1.73966C11.5901 0.788665 10.8197 0.0195312 9.86717 0.0195312Z" fill="#CA0080"/>
<path d="M59.6629 0.0189442H52.6345C51.6819 0.0189442 50.9153 0.807022 50.9153 1.73529V29.7802C50.9153 30.3599 50.1677 30.5683 49.8982 30.0493L33.5643 0.765345C33.2948 0.287951 32.8166 0.0189442 32.236 0.0189442H20.5434C19.5908 0.0189442 18.8242 0.807022 18.8242 1.73529V46.5458C18.8242 47.4968 19.6136 48.2622 20.5434 48.2622H27.5718C28.5244 48.2622 29.291 47.4741 29.291 46.5458V17.656C29.291 17.0763 30.0386 16.8679 30.3081 17.387L47.1013 47.5423C47.3707 48.0197 47.8489 48.2887 48.4295 48.2887H59.6022C60.5548 48.2887 61.3214 47.5006 61.3214 46.5724V1.71634C61.3214 0.765345 60.532 0 59.6022 0H59.6629V0.0189442Z" fill="#200020"/>
<path d="M76.8506 25.9943C77.8677 21.4628 80.5204 19.4547 84.5204 19.4547C88.0878 19.4547 91.1542 21.5234 91.5906 25.9943H76.8506ZM101.936 30.7758C101.936 18.1514 93.7045 11.8809 84.6684 11.8809C72.9151 11.8809 66.2168 20.0155 66.2168 30.9842C66.2168 43.4646 74.6343 49.4055 84.399 49.4055C94.1637 49.4055 99.8639 44.3777 101.397 37.8344C101.606 36.9857 101.128 36.2393 99.8639 36.2393H94.3269C93.7045 36.2393 93.1466 36.5689 92.8771 37.1903C91.4881 40.2138 89.2718 41.8051 84.9986 41.8051C80.1675 41.8051 76.9151 38.7816 76.4369 32.6361H100.194C101.211 32.6361 101.913 31.8897 101.913 30.772H101.932L101.936 30.7758Z" fill="#200020"/>
<path d="M192.28 12.7676H185.233C184.284 12.7676 183.514 13.5367 183.514 14.4839V46.564C183.514 47.5112 184.284 48.2803 185.233 48.2803H192.28C193.229 48.2803 193.999 47.5112 193.999 46.564V14.4877C193.999 13.5405 193.229 12.7714 192.28 12.7714V12.7676Z" fill="#200020"/>
<path d="M123.849 41.3938C119.226 41.3938 115.97 37.999 115.97 30.7131C115.97 23.4272 119.226 19.6194 123.849 19.6194C128.471 19.6194 131.727 23.1392 131.727 30.7131C131.727 38.287 128.471 41.3938 123.849 41.3938ZM139.852 12.7692H132.824C131.871 12.7692 131.105 13.5573 131.105 14.4855V16.2246C129.01 13.7619 125.549 12.0645 121.01 12.0645C110.851 12.0645 105.484 21.2334 105.484 30.9594C105.484 39.4464 109.902 48.9639 120.805 48.9639C124.703 48.9639 128.847 47.0998 131.109 44.4742V58.2807C131.109 59.2317 131.898 59.997 132.828 59.997H139.856C140.809 59.997 141.575 59.2089 141.575 58.2807V14.5499C141.575 13.5989 140.786 12.8336 139.856 12.8336V12.773L139.852 12.7692Z" fill="#200020"/>
<path d="M177.29 12.7676H170.261C169.309 12.7676 168.542 13.5557 168.542 14.4839V32.6362C168.542 38.4938 165.931 40.1912 162.591 40.1912C159.252 40.1912 156.641 38.4748 156.641 32.6362V14.4839C156.641 13.5329 155.851 12.7676 154.921 12.7676H147.893C146.94 12.7676 146.174 13.5557 146.174 14.4839V33.3788C146.174 44.6165 152.394 49.1518 162.614 49.1518C172.834 49.1518 179.054 44.5976 179.054 33.3788V14.4839C179.054 13.5329 178.265 12.7676 177.335 12.7676H177.274H177.293H177.29Z" fill="#200020"/>
</g>
<defs>
<clipPath id="clip0_2811_18999">
<rect width="194" height="60" fill="white"/>
</clipPath>
</defs>
</svg>
