<svg width="166" height="57" viewBox="0 0 166 57" fill="none" xmlns="http://www.w3.org/2000/svg">
<g clip-path="url(#clip0_2811_19020)">
<path fill-rule="evenodd" clip-rule="evenodd" d="M48.9635 25.4437C47.889 24.3714 44.5122 24.831 38.0656 25.1373C39.2936 19.7759 40.2145 15.0272 42.6704 11.3507C53.8752 11.9635 67.5358 13.4953 83.1919 13.4953C114.043 13.3421 114.35 2.00646 114.35 2.00646C101.15 5.68289 83.1919 4.6106 69.5312 3.38512C52.3403 1.70009 35.3028 -2.12952 21.0282 1.54691C4.29773 5.98926 2.76283 18.3972 3.37679 23.7587C10.1304 15.0272 19.1863 11.8103 30.6981 11.1975C31.7725 11.1975 33.0005 11.0444 34.0749 11.0444C31.926 13.1889 30.3911 16.7122 28.7027 22.0736C28.3957 23.2991 27.9353 24.3714 27.6283 25.4437C13.3537 26.6692 10.5908 33.2561 11.3583 34.9412C12.2792 36.7794 17.3444 34.3284 23.6375 33.7157C24.098 33.7157 24.405 33.5625 24.8655 33.5625C22.4096 39.9962 19.6468 44.4386 15.1956 47.1959C8.44198 51.1787 1.53491 49.3405 0 48.2682C0.613962 55.7743 11.8188 59.7571 21.3352 54.5488C29.0097 50.4128 33.3074 40.4558 35.7633 33.1029C37.9122 33.1029 39.9075 33.1029 42.0564 32.9498C47.889 32.6434 50.3449 26.6692 48.9635 25.4437ZM164.388 17.0186C164.081 16.8654 163.774 16.8654 163.467 16.8654C163.16 16.8654 162.853 17.0186 162.546 17.1717C162.239 17.3249 162.086 17.4781 161.932 17.7845C161.779 17.9377 161.626 18.244 161.472 18.5504C161.319 19.1631 161.319 19.7759 161.626 20.2354C159.477 22.2268 157.481 23.6055 156.407 23.2991C155.025 22.8396 156.1 19.1631 157.481 15.7931C158.095 15.9463 158.709 15.7931 159.17 15.4867C159.63 15.1803 160.091 14.7208 160.244 14.108C160.398 13.4953 160.398 12.7294 160.091 12.2698C159.784 11.6571 159.323 11.1975 158.709 11.0444C158.402 10.8912 158.095 10.8912 157.788 10.8912C157.481 10.8912 157.174 11.0444 156.867 11.1975C156.56 11.3507 156.253 11.5039 156.1 11.8103C155.946 12.1166 155.793 12.2698 155.639 12.7294C155.332 13.6485 155.639 14.5676 156.253 15.3335C154.411 18.5504 152.57 21.3077 151.035 20.8482C149.346 20.3886 149.5 17.0186 149.96 13.1889C150.574 12.8826 151.342 12.2698 151.649 11.3507C151.802 10.738 151.802 9.97206 151.495 9.51251C151.188 8.89977 150.728 8.44022 150.114 8.28703C149.807 8.13385 149.5 8.13385 149.193 8.13385C148.886 8.13385 148.579 8.28703 148.272 8.44022C147.965 8.5934 147.658 8.74658 147.504 9.05295C147.351 9.35932 147.197 9.51251 147.044 9.97206C146.737 11.1975 147.197 12.423 148.272 12.8826C147.351 16.4058 146.123 19.9291 144.742 19.6227C143.667 19.3163 142.9 16.8654 142.286 14.108C142.593 13.8017 142.9 13.3421 143.053 13.0358C143.207 12.5762 143.36 12.2698 143.36 11.8103C143.36 11.3507 143.207 10.8912 142.9 10.5848C142.593 10.2784 142.286 9.97206 141.825 9.81888C141.518 9.66569 141.211 9.66569 140.904 9.66569C140.597 9.66569 140.29 9.81888 139.983 9.97206C139.676 10.1252 139.523 10.2784 139.369 10.5848C139.216 10.738 139.062 11.0444 138.909 11.3507C138.755 11.6571 138.755 11.9635 138.755 12.2698C138.755 12.5762 138.909 12.8826 139.062 13.1889C139.369 13.3421 139.523 13.6485 139.83 13.8017C140.137 13.9549 140.444 14.108 140.751 14.108L141.211 23.7587L157.021 28.8138L162.853 21.3077C163.16 21.4609 163.467 21.4609 163.774 21.4609C164.081 21.4609 164.388 21.4609 164.695 21.3077C165.002 21.1545 165.309 21.0014 165.463 20.695C165.616 20.3886 165.77 20.2354 165.923 19.9291C166.23 18.7036 165.616 17.4781 164.388 17.0186Z" fill="#0074CA"/>
<path fill-rule="evenodd" clip-rule="evenodd" d="M146.277 43.8258C143.361 49.0341 139.217 51.6382 136.914 49.6468C134.766 47.6554 135.226 41.9876 138.142 36.7793C141.059 31.571 145.203 28.9669 147.505 30.9583C149.808 32.7965 149.194 38.6175 146.277 43.8258ZM142.287 26.0564C142.287 26.0564 138.603 27.435 135.993 29.886C135.073 30.6519 134.305 31.571 133.538 32.4901C132.77 33.4092 132.31 34.3284 131.696 35.4006C130.928 36.7793 130.161 38.3112 129.547 39.843C129.547 39.843 128.012 43.0599 126.938 44.5917C125.863 46.1236 123.868 47.6554 122.947 48.115C122.026 48.5745 120.951 48.8809 120.03 49.1873C113.277 51.1787 112.049 46.2768 113.584 44.1322C114.198 43.3662 117.882 40.4557 120.337 38.4643C125.249 34.4815 128.626 31.8774 130.928 29.5796C133.384 27.1287 131.849 25.75 129.854 25.4436C125.096 24.6777 122.947 25.9032 121.565 27.1287C119.877 28.5073 110.054 40.4557 110.054 40.4557C110.054 40.4557 126.017 9.35926 128.779 3.9978C130.928 -0.444555 120.491 -1.05729 117.575 5.37646C115.886 9.05289 104.374 35.707 102.993 38.9239C100.384 44.8981 100.23 45.8172 99.0022 46.8895H98.8488C97.6208 47.9618 95.9324 48.8809 94.7045 48.8809C93.9371 48.8809 93.6301 48.4213 93.4766 47.6554C93.3231 46.7363 93.4766 45.664 93.7836 44.4385C93.9371 43.6726 94.244 42.7535 94.551 41.8344C94.858 40.9153 95.165 39.9962 95.6255 38.9239C95.9324 38.0048 96.3929 37.0857 96.8534 36.1666L97.9278 33.7156C98.2348 32.9497 98.5418 32.337 98.8488 31.7242C99.1557 31.1115 99.1557 30.8051 99.3092 30.4987C99.7697 28.9669 99.6162 27.435 99.1557 26.6691C98.6953 25.75 98.0813 25.2905 97.0069 25.2905C95.9324 25.2905 95.0115 25.5968 94.0906 26.0564C93.0161 26.6691 92.0952 27.2819 91.1742 28.3542C90.4068 29.2733 89.4858 30.3456 88.7184 31.4178C88.2579 32.1838 87.6439 32.7965 87.03 33.5624C86.416 34.3284 85.8021 35.0943 85.3416 35.707C84.5741 36.6261 83.8067 37.6984 83.0392 38.6175H82.4253C82.4253 38.4643 82.5788 38.158 82.7323 37.6984C82.8857 37.2389 83.0392 36.7793 83.3462 36.1666C83.8067 34.7879 84.4206 33.5624 84.8811 32.1838C85.1881 31.571 85.3416 30.9583 85.4951 30.3456C85.6486 29.7328 85.8021 29.4264 85.9556 29.1201C86.2625 27.8946 86.2625 26.9755 85.9556 26.3628C85.6486 25.5968 85.0346 25.2905 83.8067 25.2905C82.7322 25.2905 81.6578 25.5968 80.8904 26.2096C80.1229 26.8223 79.3555 27.7414 78.895 28.6605C78.1275 30.1924 77.5136 31.7242 76.8996 33.2561C75.3647 36.9325 73.9833 40.6089 72.7554 44.4385C72.4484 45.2045 72.2949 45.9704 71.9879 46.8895C70.453 47.6554 68.9181 48.2682 67.3832 48.7277C66.7692 48.8809 66.0018 49.0341 65.5413 48.5745C65.2343 48.2682 65.2343 47.6554 65.2343 47.1959C65.5413 44.7449 66.6157 42.294 67.5367 39.9962C69.2251 36.1666 70.9135 32.1838 72.4484 28.201C72.6019 27.7414 72.7554 27.1287 72.6019 26.6691C72.2949 25.9032 71.374 25.5968 70.6065 25.4436C68.7646 25.1373 66.7692 25.4436 65.6948 26.8223C65.3878 27.2819 65.0808 27.8946 64.7739 28.3542L58.9412 41.6812C57.7133 44.4385 56.1784 47.5022 53.2621 48.5745C52.8016 48.7277 52.1876 48.8809 51.7272 48.5745C51.1132 48.2682 50.8062 47.5022 50.8062 46.8895C50.8062 46.2768 51.1132 45.5108 51.2667 44.8981C53.7225 38.9239 55.4109 34.7879 57.8668 28.9669C58.0203 28.6605 58.6342 27.2819 58.6342 26.6691C58.6342 26.5159 58.6342 26.2096 58.4807 26.0564C58.3273 25.9032 58.1738 25.75 58.0203 25.5968C56.4854 24.8309 54.6435 25.2905 53.2621 26.3628C51.1132 27.8946 49.8853 30.3456 48.8108 32.7965C47.5829 35.4006 46.355 38.0048 45.2806 40.7621C44.0526 43.8258 42.6712 46.7363 42.0573 50.1064C41.7503 51.7914 41.7503 53.936 42.9782 55.1615C43.7457 55.9274 44.9736 56.2338 46.048 56.2338C50.4992 56.3869 54.6435 54.0892 57.8668 51.0255C58.0203 52.7105 58.1738 54.5487 59.5552 55.3147C60.4761 55.9274 61.5506 55.9274 62.4715 55.7742C64.4669 55.621 66.4623 54.8551 68.4576 54.0892C69.2251 53.7828 69.9925 53.4764 70.76 53.0169C70.76 53.3233 70.76 53.6296 70.9135 53.936C71.067 54.5487 71.374 55.0083 71.8344 55.4678C72.2949 55.7742 72.9089 56.0806 73.8298 56.0806C74.5973 56.0806 75.2112 55.9274 75.8252 55.621C76.4391 55.3147 77.0531 54.7019 77.6671 53.7828L90.0998 37.2389H90.5603C89.9463 38.7707 89.3323 40.4557 88.7184 41.9876C88.2579 43.3662 87.7974 44.7449 87.4905 46.1236C86.723 49.3404 86.416 51.7914 86.8765 53.4764C87.1835 55.1615 87.9509 56.0806 89.1789 56.0806C90.4068 56.0806 91.4812 55.9274 92.7091 55.621C93.9371 55.3147 95.0115 54.8551 96.0859 54.3955C96.8534 54.0892 97.6208 53.6296 98.3883 53.1701C98.3883 53.4764 98.2348 53.936 98.2348 54.2424C98.2348 55.1615 98.3883 55.3146 98.6953 55.7742C99.1557 56.2338 99.6162 56.2338 100.537 56.2338C101.151 56.2338 101.458 56.2338 102.072 55.7742C102.686 55.3146 104.681 52.4041 106.216 50.1064C106.523 49.8 106.83 49.3404 107.137 49.0341C106.523 51.7914 107.751 55.621 111.435 56.2338C115.119 56.8465 120.951 55.9274 128.472 50.1064C128.626 50.8723 128.779 51.6382 129.086 52.4041C129.7 53.7828 130.468 54.8551 131.696 55.7742C132.924 56.6933 134.459 56.9997 136.454 56.9997C137.835 56.9997 139.217 56.6933 140.445 56.2338C141.826 55.7742 143.054 55.1615 144.282 54.3955C145.51 53.6296 146.584 52.5573 147.659 51.485C149.654 49.3405 151.343 46.8895 152.57 44.2854C153.645 41.8344 154.105 39.9962 154.719 37.0857C155.026 35.5538 155.18 34.1752 155.026 32.9497C155.026 32.9497 154.873 29.886 154.412 29.5796C153.798 29.4264 142.287 26.0564 142.287 26.0564Z" fill="#0074CA"/>
</g>
<defs>
<clipPath id="clip0_2811_19020">
<rect width="166" height="57" fill="white"/>
</clipPath>
</defs>
</svg>
