<svg width="171" height="71" viewBox="0 0 171 71" fill="none" xmlns="http://www.w3.org/2000/svg">
<g clip-path="url(#clip0_2811_19008)">
<path d="M13.6797 70.6777L53.6382 24.5262C53.9597 24.1453 54.0182 23.735 53.8428 23.2662C53.6382 22.7974 53.2874 22.5629 52.7905 22.5629H5.43663V33.9909H30.7505L0.292014 68.7437C-0.0295245 69.1246 -0.0879861 69.5349 0.0873985 70.0037C0.262783 70.4726 0.642783 70.707 1.13971 70.707H13.6505V70.6777H13.6797ZM20.1397 70.707H53.2874V59.279H30.0197L20.1397 70.707ZM114.672 22.6215V47.2943L86.3474 22.6801C85.9674 22.3578 85.5582 22.2699 85.0905 22.475C84.6228 22.6801 84.3889 23.0318 84.3889 23.5299V70.707H95.7889V45.9757L124.114 70.6484C124.494 70.9707 124.903 71.0293 125.37 70.8535C125.838 70.6484 126.072 70.2967 126.072 69.7986V22.6215H114.643H114.672ZM156.121 10.9005C156.121 9.90425 156.297 8.96657 156.677 8.05819C157.057 7.14981 157.583 6.32934 158.284 5.62608C158.986 4.92282 159.775 4.39538 160.71 4.01445C161.617 3.63351 162.581 3.4577 163.546 3.4577C164.54 3.4577 165.475 3.63351 166.381 4.01445C167.287 4.39538 168.106 4.92282 168.807 5.62608C169.509 6.32934 170.035 7.12051 170.415 8.05819C170.795 8.96657 170.97 9.93355 170.97 10.9005C170.97 11.8968 170.795 12.8345 170.415 13.7429C170.035 14.6513 169.509 15.4717 168.807 16.175C168.106 16.8783 167.317 17.4057 166.381 17.7866C165.475 18.1676 164.51 18.3434 163.546 18.3434C162.552 18.3434 161.617 18.1383 160.71 17.7573C159.804 17.3764 158.986 16.8489 158.314 16.1457C157.612 15.4424 157.086 14.6513 156.706 13.7429C156.326 12.8345 156.121 11.8968 156.121 10.9005ZM61.7643 7.47214C61.7643 6.47586 61.9397 5.53818 62.3197 4.6298C62.6997 3.72142 63.2259 2.90095 63.9274 2.19769C64.6289 1.49443 65.4182 0.966983 66.3536 0.58605C67.2597 0.175815 68.1951 0 69.1889 0C70.1828 0 71.1182 0.175815 72.0243 0.556748C72.9305 0.937681 73.7489 1.46513 74.4505 2.16839C75.152 2.87165 75.6782 3.66281 76.0582 4.6005C76.4382 5.50887 76.6135 6.47586 76.6135 7.44284C76.6135 8.43913 76.4089 9.37681 76.0582 10.2852C75.6782 11.1936 75.152 12.014 74.4505 12.7173C73.7489 13.4206 72.9597 13.948 72.0243 14.3289C71.1182 14.7099 70.1536 14.8857 69.1889 14.8857C68.1951 14.8857 67.2597 14.6806 66.3536 14.2996C65.4474 13.9187 64.6582 13.3913 63.9566 12.688C63.2551 11.9847 62.7289 11.1936 62.3489 10.2852C61.9689 9.37681 61.7643 8.43913 61.7643 7.44284V7.47214ZM147.674 3.42839V70.6777H136.244V3.42839H147.674ZM74.8305 22.5922V70.6777H63.4305V22.5922H74.8305ZM169.187 22.5922V70.6777H157.787V22.5922H169.187Z" fill="#32CD96"/>
</g>
<defs>
<clipPath id="clip0_2811_19008">
<rect width="171" height="71" fill="white"/>
</clipPath>
</defs>
</svg>
