<svg width="166" height="37" viewBox="0 0 166 37" fill="none" xmlns="http://www.w3.org/2000/svg">
<g clip-path="url(#clip0_2811_18982)">
<path d="M59.1836 26.9596C58.6161 26.99 57.7726 27.4769 56.8218 28.0398C51.2394 31.3412 45.7337 32.9995 40.2893 32.9995C38.2035 32.9995 36.5166 32.6039 35.259 31.828C33.9861 31.0369 33.3879 30.0784 33.3573 28.694C33.3113 26.7923 34.1548 25.6664 35.7191 25.6664L38.4489 25.6969C42.4364 25.6969 46.7152 24.8753 51.2547 23.2474C54.3527 22.1368 56.9292 20.7676 58.9842 19.1245C61.0393 17.4814 62.1128 15.9144 62.2355 14.4691C62.3122 13.2824 61.6987 12.3391 60.3952 11.5784C58.9689 10.7569 57.0365 10.3613 54.644 10.3613C50.5646 10.3613 46.2398 11.2437 41.6389 13.0237C37.222 14.7581 33.3573 17.0706 30.2287 20.0525C26.502 23.5973 24.7383 27.0509 24.7383 30.3827C24.7383 32.3757 25.7811 33.9884 27.8515 35.1903C29.9373 36.4074 32.6978 37.0007 36.1485 37.0007C38.7403 37.0007 41.8382 36.8029 44.9055 36.1487C47.9728 35.4946 50.4419 34.5209 52.8037 33.4711C54.6594 32.6496 56.3464 31.6607 57.88 30.4892C59.429 29.3177 60.1498 28.5114 60.1804 27.9029C60.1958 27.5073 59.8584 26.9292 59.1683 26.9748M37.2987 20.083C38.2496 19.0941 39.3078 18.1812 40.4733 17.3597C43.8166 14.9863 46.9606 13.7997 49.9051 13.7997C51.1014 13.8149 52.0215 14.0126 52.6963 14.4234C53.3711 14.819 53.6932 15.3819 53.6932 16.0969C53.6932 17.0402 53.0644 18.0291 51.8222 19.0636C50.5646 20.1134 49.0156 20.9501 47.1753 21.5587C44.6295 22.3955 41.5929 22.8214 38.0809 22.8214C36.6239 22.8214 35.8878 22.6084 35.8878 22.1672C35.8878 21.7869 36.3632 21.1023 37.3294 20.0982" fill="#FB5100"/>
<path d="M87.7998 10.3609C83.8431 10.3609 78.9201 11.5476 75.6688 14.3774C76.0062 13.0233 76.5737 10.7869 76.681 10.3457H66.9578C66.9578 10.3457 61.3601 32.4818 60.2559 37.0003H66.053C68.3534 37.0003 70.3778 35.4485 70.9299 33.2273L73.169 24.312C74.764 17.77 78.3834 15.1381 82.9229 14.7881C88.4746 14.3622 89.3795 17.2223 87.8765 23.3992L84.4412 37.0003H90.453C92.6461 37.0003 94.5631 35.5246 95.0846 33.4251L98.2745 20.8128C99.1487 17.1615 98.5506 14.8946 96.9863 13.069C95.3913 11.2281 92.232 10.3457 87.7998 10.3457" fill="#FB5100"/>
<path d="M130.281 0L127.321 11.7755C125.098 11.7755 123.687 11.7755 121.478 11.7755C115.006 11.8059 109.945 12.947 106.295 15.1377C102.645 17.3438 100.329 20.6147 99.5627 24.9811C98.7959 29.3627 99.9768 32.6336 102.814 34.8853C104.838 36.5132 108.197 36.9087 109.685 36.9544C111.786 37.0152 117.567 36.7566 121.754 33.8812C121.371 35.3721 121.233 35.9655 120.972 36.9848C122.828 36.9848 124.546 36.9848 126.033 36.9848C128.686 36.9848 131.125 35.2808 131.8 32.6184L140.004 0H130.266H130.281ZM121.754 33.9116C117.813 33.9116 113.013 34.6266 109.915 31.8121C108.289 30.3363 107.86 28.0695 108.396 25.0115C108.933 21.9992 110.175 19.7475 112.322 18.3022C116.371 15.5637 121.509 16.0201 126.217 16.1875L121.754 33.9268V33.9116Z" fill="#FB5100"/>
<path d="M160.279 10.8466C155.448 9.87293 149.543 10.2837 145.142 12.3376C142.213 13.6916 141.308 15.3651 140.74 17.1147C141.814 16.567 143.961 15.6998 146.645 14.9696C151.399 13.6612 157.442 13.0222 155.893 18.9252C152.457 18.8795 149.651 18.9252 146.277 19.5337C132.689 21.9375 129.882 37.1969 146.461 37.0144H156.782C159.313 37.0144 161.506 35.3104 162.119 32.8762L165.785 18.3014C166.689 14.6805 164.45 11.6834 160.279 10.8618M152.319 33.1653L149.881 33.2109C140.74 33.3326 141.001 24.6455 148.332 22.6525C150.954 21.9375 152.396 22.0136 155.111 21.9983L152.304 33.1501L152.319 33.1653Z" fill="#FB5100"/>
<path d="M27.4213 8.55078H1.18089L0 13.2671L15.0449 13.3127L9.09442 36.8028L14.3701 36.8637C16.9619 36.8941 19.247 35.1445 19.8605 32.6495L24.6608 13.404C27.4213 13.4192 30.3045 13.404 31.9915 13.2671C36.1936 12.5368 39.4756 8.55078 39.4756 8.55078H27.4213Z" fill="#FB5100"/>
</g>
<defs>
<clipPath id="clip0_2811_18982">
<rect width="166" height="37" fill="white"/>
</clipPath>
</defs>
</svg>
