<svg width="22" height="21" viewBox="0 0 22 21" fill="none" xmlns="http://www.w3.org/2000/svg">
<path d="M17.6864 6.82269C17.6975 6.97195 17.6975 7.12036 17.6975 7.26878C17.6975 11.8107 14.2405 17.0443 7.92278 17.0443C5.97637 17.0443 4.16813 16.4805 2.64648 15.5014C2.92284 15.5329 3.18896 15.544 3.4764 15.544C5.08248 15.544 6.56063 15.0015 7.74196 14.0761C6.2314 14.0445 4.96563 13.0551 4.52893 11.6938C4.74131 11.7254 4.95454 11.7467 5.17801 11.7467C5.48593 11.7467 5.79554 11.7041 6.08298 11.6299C4.5076 11.3109 3.32798 9.92825 3.32798 8.25819V8.21554C3.78601 8.47057 4.3174 8.63007 4.88034 8.65139C3.9549 8.03557 3.34845 6.98219 3.34845 5.79063C3.34845 5.15263 3.51819 4.56751 3.81587 4.05745C5.50725 6.14119 8.04987 7.50333 10.9004 7.6526C10.8475 7.39672 10.8151 7.13145 10.8151 6.86533C10.8151 4.9718 12.347 3.42969 14.2507 3.42969C15.2402 3.42969 16.1332 3.84422 16.761 4.51463C17.5371 4.36536 18.2809 4.07792 18.9411 3.68472C18.686 4.48222 18.1427 5.15263 17.4305 5.57825C18.1222 5.50319 18.7927 5.31213 19.4085 5.04601C18.9411 5.72666 18.3568 6.3331 17.6864 6.82269Z" fill="#352E2E"/>
</svg>
