<svg width="21" height="21" viewBox="0 0 21 21" fill="none" xmlns="http://www.w3.org/2000/svg">
<path d="M10.2342 6.29297C8.05575 6.29297 6.29102 8.05856 6.29102 10.2361C6.29102 12.4145 8.05575 14.1801 10.2342 14.1801C12.4109 14.1801 14.1773 12.4145 14.1773 10.2361C14.1773 8.05856 12.4109 6.29297 10.2342 6.29297ZM10.2342 12.7984C8.81913 12.7984 7.67193 11.6511 7.67193 10.237C7.67193 8.82194 8.81913 7.67559 10.2342 7.67559C11.6492 7.67559 12.7947 8.82194 12.7947 10.237C12.7947 11.6511 11.6492 12.7984 10.2342 12.7984Z" fill="#352E2E"/>
<path d="M14.3335 7.0655C14.8413 7.0655 15.253 6.65384 15.253 6.14603C15.253 5.63822 14.8413 5.22656 14.3335 5.22656C13.8257 5.22656 13.4141 5.63822 13.4141 6.14603C13.4141 6.65384 13.8257 7.0655 14.3335 7.0655Z" fill="#352E2E"/>
<path d="M17.5135 5.21174C17.1134 4.18053 16.2989 3.36512 15.2677 2.96679C14.6715 2.74247 14.0411 2.62221 13.4031 2.60856C12.5818 2.57274 12.3216 2.5625 10.2387 2.5625C8.15584 2.5625 7.88887 2.5625 7.07431 2.60856C6.43802 2.62135 5.80769 2.74162 5.21149 2.96679C4.17943 3.36512 3.36487 4.18053 2.96569 5.21174C2.74137 5.80879 2.62111 6.43826 2.60831 7.07626C2.57164 7.89679 2.56055 8.15694 2.56055 10.2407C2.56055 12.3236 2.56055 12.5888 2.60831 13.4051C2.62111 14.0431 2.74137 14.6726 2.96569 15.2705C3.36572 16.3008 4.18028 17.1162 5.21234 17.5154C5.80599 17.7474 6.43631 17.8788 7.07602 17.8992C7.8974 17.9351 8.15755 17.9461 10.2404 17.9461C12.3233 17.9461 12.5903 17.9461 13.4048 17.8992C14.042 17.8864 14.6723 17.7653 15.2694 17.5419C16.3006 17.1418 17.1151 16.3273 17.5152 15.2961C17.7395 14.699 17.8598 14.0695 17.8725 13.4315C17.9092 12.611 17.9203 12.3509 17.9203 10.2671C17.9203 8.18338 17.9203 7.91897 17.8725 7.10271C17.8615 6.45618 17.742 5.81562 17.5135 5.21174ZM16.4746 13.342C16.4686 13.8333 16.3799 14.3203 16.2093 14.7817C15.9492 15.453 15.4195 15.9835 14.7491 16.2411C14.2928 16.4109 13.8117 16.4996 13.3247 16.5064C12.5144 16.5439 12.2858 16.5533 10.208 16.5533C8.12855 16.5533 7.91616 16.5533 7.09052 16.5064C6.60519 16.5004 6.12243 16.4109 5.66696 16.2411C4.99399 15.9844 4.4609 15.4539 4.20075 14.7817C4.03358 14.3263 3.94316 13.8444 3.93549 13.3582C3.89881 12.5479 3.89028 12.3193 3.89028 10.2415C3.89028 8.16291 3.89028 7.95053 3.93549 7.12403C3.94146 6.63273 4.03016 6.14656 4.20075 5.68512C4.4609 5.01215 4.99399 4.48247 5.66696 4.22488C6.12243 4.056 6.60519 3.96644 7.09052 3.95962C7.90166 3.92294 8.1294 3.91271 10.208 3.91271C12.2866 3.91271 12.4999 3.91271 13.3247 3.95962C13.8117 3.96559 14.2928 4.05515 14.7491 4.22488C15.4195 4.48332 15.9492 5.01385 16.2093 5.68512C16.3765 6.14059 16.4669 6.6225 16.4746 7.10868C16.5113 7.91982 16.5206 8.14756 16.5206 10.2262C16.5206 12.3039 16.5206 12.5274 16.484 13.3428H16.4746V13.342Z" fill="#352E2E"/>
</svg>
