<svg width="21" height="21" viewBox="0 0 21 21" fill="none" xmlns="http://www.w3.org/2000/svg">
<path d="M4.7217 6.13872C5.7524 6.13872 6.58794 5.30318 6.58794 4.27249C6.58794 3.24179 5.7524 2.40625 4.7217 2.40625C3.69101 2.40625 2.85547 3.24179 2.85547 4.27249C2.85547 5.30318 3.69101 6.13872 4.7217 6.13872Z" fill="#352E2E"/>
<path d="M8.34814 7.55276V17.9066H11.5629V12.7864C11.5629 11.4353 11.8171 10.1269 13.4922 10.1269C15.1444 10.1269 15.1648 11.6716 15.1648 12.8717V17.9075H18.3813V12.2294C18.3813 9.44032 17.7808 7.29688 14.5209 7.29688C12.9557 7.29688 11.9066 8.15579 11.4776 8.96864H11.4341V7.55276H8.34814ZM3.10938 7.55276H6.32923V17.9066H3.10938V7.55276Z" fill="#352E2E"/>
</svg>
