<svg xmlns="http://www.w3.org/2000/svg" viewBox="0 0 360 320">
  <defs>
    <linearGradient id="bg" x1="50%" x2="50%" y1="0%" y2="100%">
      <stop offset="0%" stop-color="#e5effd"/>
      <stop offset="100%" stop-color="#c4d9f6"/>
    </linearGradient>
    <linearGradient id="boxFront" x1="0%" x2="100%" y1="0%" y2="100%">
      <stop offset="0%" stop-color="#f1cfa3"/>
      <stop offset="100%" stop-color="#e5b987"/>
    </linearGradient>
    <linearGradient id="boxSide" x1="0%" x2="100%" y1="0%" y2="100%">
      <stop offset="0%" stop-color="#dba871"/>
      <stop offset="100%" stop-color="#c78f56"/>
    </linearGradient>
    <linearGradient id="shield" x1="50%" x2="50%" y1="0%" y2="100%">
      <stop offset="0%" stop-color="#1f4c8f"/>
      <stop offset="100%" stop-color="#133261"/>
    </linearGradient>
    <linearGradient id="leaf" x1="0%" x2="100%" y1="0%" y2="100%">
      <stop offset="0%" stop-color="#9bd2a5"/>
      <stop offset="100%" stop-color="#4f9a6b"/>
    </linearGradient>
  </defs>
  <g fill="none" fill-rule="evenodd">
    <circle cx="260" cy="82" r="52" fill="url(#bg)" opacity=".65"/>
    <path d="M233 68c26.5 0 48 21.5 48 48s-21.5 48-48 48" stroke="#1f4c8f" stroke-width="10" stroke-linecap="round" opacity=".45"/>
    <path d="M226 164l16-36" stroke="#1f4c8f" stroke-width="10" stroke-linecap="round"/>
    <ellipse cx="170" cy="272" rx="110" ry="22" fill="#dce6f9"/>
    <g transform="translate(74 70)">
      <path d="M74 34l72-26 72 26v114l-72 26-72-26z" fill="#f6dcb5"/>
      <path d="M146 148l72-26V8l-72 26z" fill="url(#boxSide)"/>
      <path d="M74 34l72-26v140l-72-26z" fill="url(#boxFront)"/>
      <path d="M146 8l72-26-72 126-72-52z" fill="#f9e7c7" opacity=".6"/>
      <path d="M74 34l72 52 72-78-72-26z" fill="#fdf3df" opacity=".55"/>
      <path d="M128 124c0 8.837-7.163 16-16 16s-16-7.163-16-16" stroke="#163a6a" stroke-width="8" stroke-linecap="round"/>
      <path d="M200 56l-24-8" stroke="#163a6a" stroke-width="8" stroke-linecap="round"/>
      <path d="M114 0l56-20 56 20-56 20z" fill="#f1cfa3"/>
    </g>
    <g transform="translate(206 108)">
      <path d="M30 0l30 12v18c0 18.778-11.36 36.028-30 43-18.64-6.972-30-24.222-30-43v-18z" fill="url(#shield)"/>
      <path d="M18 27l10 10L42 23" stroke="#fff" stroke-width="6" stroke-linecap="round" stroke-linejoin="round"/>
    </g>
    <g transform="translate(162 48)">
      <path d="M8 46c12-22 24-34 36-34s24 12 36 34" stroke="#1f4c8f" stroke-width="7" stroke-linecap="round" opacity=".5"/>
      <path d="M40 0c0 12-8 22-24 30 16 8 24 18 24 30 12-12 18-24 18-36S52 12 40 0z" fill="url(#leaf)"/>
    </g>
    <path d="M74 204c8 16 22 26 44 30" stroke="#3b6db6" stroke-width="8" stroke-linecap="round" opacity=".3"/>
    <circle cx="92" cy="164" r="10" fill="#1f4c8f" opacity=".25"/>
    <circle cx="292" cy="220" r="8" fill="#4d9fe1" opacity=".3"/>
    <circle cx="248" cy="244" r="6" fill="#1f4c8f" opacity=".15"/>
  </g>
</svg>
