<svg width="100" height="100" viewBox="0 0 100 100" fill="none" xmlns="http://www.w3.org/2000/svg">
<rect width="100" height="100" rx="10" fill="white"/>
<g clip-path="url(#clip0_2811_19140)">
<path d="M33.0232 84.2656C31.94 84.2656 31.0664 85.1479 31.0664 86.2225C31.0664 87.297 31.9487 88.1793 33.0232 88.1793C34.0977 88.1793 34.9801 87.297 34.9801 86.2225C34.9801 85.1479 34.1065 84.2656 33.0232 84.2656ZM33.0232 87.7512C32.1846 87.7512 31.5032 87.0698 31.5032 86.2312C31.5032 85.3925 32.1846 84.7111 33.0232 84.7111C33.8619 84.7111 34.5433 85.3925 34.5433 86.2312C34.5433 87.0698 33.8619 87.7512 33.0232 87.7512Z" fill="#319BE2"/>
<path d="M33.6779 16.0912L33.0839 14.877L32.4811 16.0912L31.1445 16.2834L32.1142 17.2269L31.8871 18.5547L33.0839 17.9258L34.2807 18.5547L34.0536 17.2269L35.0232 16.2834L33.6779 16.0912ZM33.6954 17.7598L33.0839 17.4366L32.4724 17.7598L32.5859 17.0784L32.088 16.5892L32.7781 16.4931L33.0839 15.8728L33.3896 16.4931L34.0798 16.5892L33.5818 17.0784L33.6954 17.7598Z" fill="#319BE2"/>
<path d="M77.4881 13.5234C76.4048 13.5234 75.5312 14.4058 75.5312 15.4803C75.5312 16.5548 76.4136 17.4371 77.4881 17.4371C78.5626 17.4371 79.4449 16.5548 79.4449 15.4803C79.4449 14.4058 78.5713 13.5234 77.4881 13.5234ZM77.4881 17.0003C76.6494 17.0003 75.968 16.3189 75.968 15.4803C75.968 14.6416 76.6494 13.9602 77.4881 13.9602C78.3267 13.9602 79.0081 14.6416 79.0081 15.4803C79.0081 16.3189 78.3355 17.0003 77.4881 17.0003Z" fill="#319BE2"/>
<path d="M85.7864 50.1523C84.9215 50.1523 84.2227 50.8512 84.2227 51.7161C84.2227 52.5809 84.9215 53.2798 85.7864 53.2798C86.6512 53.2798 87.3501 52.5809 87.3501 51.7161C87.3501 50.8512 86.6425 50.1523 85.7864 50.1523ZM85.7864 52.843C85.1661 52.843 84.6594 52.3363 84.6594 51.7161C84.6594 51.0958 85.1661 50.5891 85.7864 50.5891C86.4066 50.5891 86.9133 51.0958 86.9133 51.7161C86.9133 52.3363 86.4066 52.843 85.7864 52.843Z" fill="#319BE2"/>
<path d="M16.0968 32.5156C14.9612 32.5156 14.0352 33.4416 14.0352 34.5773C14.0352 35.7129 14.9612 36.6389 16.0968 36.6389C17.2325 36.6389 18.1585 35.7129 18.1585 34.5773C18.1585 33.4416 17.2325 32.5156 16.0968 32.5156ZM16.0968 36.2021C15.197 36.2021 14.4719 35.4771 14.4719 34.5773C14.4719 33.6775 15.2058 32.9524 16.0968 32.9524C16.9966 32.9524 17.7217 33.6775 17.7217 34.5773C17.7217 35.4771 16.9966 36.2021 16.0968 36.2021Z" fill="#319BE2"/>
<path d="M27.5723 86.2484C27.8605 86.3183 28.1488 86.3881 28.4371 86.4406L28.5245 86.0125C28.2362 85.9514 27.9566 85.8902 27.6858 85.8203L27.5723 86.2484Z" fill="#319BE2"/>
<path d="M18.7578 80.9474C19.1422 81.3755 19.5528 81.7861 19.9808 82.1792L20.2778 81.856C19.8585 81.4803 19.4567 81.0697 19.081 80.6504L18.7578 80.9474Z" fill="#319BE2"/>
<path d="M14.6076 69.0659C14.6076 68.7776 14.6164 68.4981 14.6251 68.2011L14.1883 68.1836C14.1708 68.4806 14.1621 68.7689 14.1621 69.0659C14.1621 69.3542 14.1708 69.6337 14.1796 69.922L14.6164 69.9046C14.6164 69.625 14.6076 69.3455 14.6076 69.0659Z" fill="#319BE2"/>
<path d="M14.3633 71.651C14.4506 72.2188 14.5642 72.7954 14.704 73.3545L15.132 73.2496C14.9923 72.708 14.8874 72.1489 14.8001 71.5898L14.3633 71.651Z" fill="#319BE2"/>
<path d="M21.3242 83.2869C21.7872 83.6364 22.2764 83.9596 22.7656 84.2566L22.9928 83.881C22.5123 83.5927 22.0406 83.2782 21.5863 82.9375L21.3242 83.2869Z" fill="#319BE2"/>
<path d="M16.6855 78.1588C16.9826 78.6567 17.3058 79.1372 17.6465 79.6002L17.9959 79.3381C17.664 78.8838 17.3407 78.4121 17.0525 77.9316L16.6855 78.1588Z" fill="#319BE2"/>
<path d="M24.2949 85.0787C24.8191 85.3233 25.3607 85.5504 25.9023 85.7426L26.0508 85.332C25.5179 85.1398 24.9938 84.9214 24.4871 84.6855L24.2949 85.0787Z" fill="#319BE2"/>
<path d="M15.2109 75.0235C15.4031 75.5651 15.6303 76.1067 15.8749 76.6309L16.268 76.4474C16.0234 75.9233 15.805 75.3991 15.6215 74.875L15.2109 75.0235Z" fill="#319BE2"/>
<path d="M14.9477 65.6596L14.5196 65.5723C14.4585 65.8605 14.4148 66.1576 14.3711 66.4459L14.7991 66.507C14.8428 66.2275 14.8865 65.9479 14.9477 65.6596Z" fill="#319BE2"/>
<path d="M86.2754 76.1764L86.7122 76.2201C86.7384 75.9231 86.7558 75.6261 86.7646 75.3291L86.3278 75.3203C86.3103 75.6086 86.3016 75.8881 86.2754 76.1764Z" fill="#319BE2"/>
<path d="M76.9629 86.6588L77.0502 87.0869C77.6792 86.9559 78.3082 86.7637 78.911 86.5278L78.7537 86.1172C78.1772 86.3443 77.5744 86.5278 76.9629 86.6588Z" fill="#319BE2"/>
<path d="M85.3496 79.7939L85.7514 79.9687C86.0048 79.3746 86.2232 78.7544 86.3804 78.1341L85.9524 78.0293C85.7951 78.6233 85.5942 79.2261 85.3496 79.7939Z" fill="#319BE2"/>
<path d="M83.332 82.9372L83.6553 83.2255C84.0833 82.7363 84.4764 82.2208 84.8259 81.6792L84.4589 81.4434C84.127 81.9675 83.7513 82.4742 83.332 82.9372Z" fill="#319BE2"/>
<path d="M80.4492 85.3148L80.6676 85.6904C81.2267 85.3672 81.7596 84.9915 82.2663 84.5809L81.9867 84.2402C81.4975 84.6333 80.9821 85.0003 80.4492 85.3148Z" fill="#319BE2"/>
<path d="M74.2373 86.913L74.2285 87.3498C74.3159 87.3498 74.3945 87.3498 74.4819 87.3498C74.7003 87.3498 74.9099 87.3411 75.1196 87.3324L75.1021 86.9043C74.8138 86.913 74.5255 86.9218 74.2373 86.913Z" fill="#319BE2"/>
<path d="M86.0052 37.207H85.5684V38.9542H86.0052V37.207Z" fill="#319BE2"/>
<path d="M86.0052 40.7012H85.5684V42.4483H86.0052V40.7012Z" fill="#319BE2"/>
<path d="M86.0052 44.1953H85.5684V45.9425H86.0052V44.1953Z" fill="#319BE2"/>
<path d="M86.0052 33.7109H85.5684V35.4581H86.0052V33.7109Z" fill="#319BE2"/>
<path d="M59.5 45.7617H55.8333M56.9724 37.2893L53.0834 41.1784M48.5 38.4284V34.7617M43.9167 41.1784L40.0276 37.2893M41.1667 45.7617H37.5M43.9167 50.3451L40.0276 54.2342M48.5 56.7617V53.0951M68.6667 65.9284L54 51.2617" stroke="#777777" stroke-width="1.5" stroke-linecap="round" stroke-linejoin="round"/>
</g>
<defs>
<clipPath id="clip0_2811_19140">
<rect width="74.7788" height="74.6652" fill="white" transform="translate(13 13.5234)"/>
</clipPath>
</defs>
</svg>
