<svg width="100" height="100" viewBox="0 0 100 100" fill="none" xmlns="http://www.w3.org/2000/svg">
<rect width="100" height="100" rx="10" fill="white"/>
<path d="M55.5007 46.5947L48.1673 53.9281L44.5005 50.2614M51.9609 66.0272C58.9147 62.7802 63.137 53.6793 64.3224 45.6089C64.726 42.8607 63.0978 40.31 60.6133 39.0678L53.28 35.4012C51.2155 34.3689 48.7854 34.3689 46.7209 35.4012L39.3875 39.0678C36.9031 40.31 35.2749 42.8607 35.6785 45.6089C36.8639 53.6793 41.0862 62.7802 48.04 66.0272C49.2808 66.6065 50.7201 66.6065 51.9609 66.0272Z" stroke="#777777" stroke-width="1.5" stroke-linecap="round" stroke-linejoin="round"/>
<path d="M49.4275 77.5812C49.3693 77.6447 49.3344 77.7337 49.3344 77.829L49.3344 79.5577C49.3344 79.7483 49.4799 79.9072 49.6544 79.9072C49.8289 79.9072 49.9744 79.7483 49.9744 79.5577L49.9744 77.829C49.9744 77.6384 49.8289 77.4795 49.6544 77.4795C49.5671 77.4795 49.4857 77.5176 49.4275 77.5812Z" fill="#319BE2"/>
<path d="M60.1209 75.7328C60.0947 75.7487 60.0715 75.7678 60.054 75.7869C59.9551 75.8949 59.9289 76.0697 60.0046 76.2095L60.7929 77.7061C60.883 77.8746 61.0779 77.9286 61.2321 77.8364C61.3863 77.7379 61.4357 77.525 61.3485 77.3598L60.5602 75.8631C60.47 75.6947 60.2722 75.6375 60.1209 75.7328Z" fill="#319BE2"/>
<path d="M69.4221 70.8404C69.2941 70.7578 69.1341 70.7864 69.0352 70.8944C69.0148 70.9167 68.9974 70.9421 68.9857 70.9675C68.8956 71.1359 68.9508 71.3488 69.105 71.4473L70.4722 72.3116C70.6263 72.4101 70.8212 72.3498 70.9085 72.1845C70.9987 72.0161 70.9434 71.8032 70.7892 71.7047L69.4221 70.8404Z" fill="#319BE2"/>
<path d="M73.1522 62.877C73.065 62.877 72.9835 62.9152 72.9253 62.9787C72.8672 63.0423 72.8323 63.1312 72.8323 63.2266C72.8323 63.4172 72.9777 63.5761 73.1522 63.5761L74.7347 63.5761C74.9092 63.5761 75.0546 63.4172 75.0546 63.2266C75.0546 63.0359 74.9092 62.877 74.7347 62.877L73.1522 62.877Z" fill="#319BE2"/>
<path d="M26.1585 63.5781C26.333 63.5781 26.4785 63.4192 26.4785 63.2285C26.4756 63.0347 26.333 62.879 26.1585 62.879L24.5761 62.879C24.4888 62.879 24.4073 62.9171 24.3492 62.9807C24.291 63.0442 24.2561 63.1332 24.2561 63.2285C24.2561 63.4192 24.4015 63.5781 24.5761 63.5781L26.1585 63.5781Z" fill="#319BE2"/>
<path d="M74.2792 54.2716C74.1919 54.2716 74.1105 54.3097 74.0523 54.3732C73.9941 54.4368 73.9592 54.5258 73.9592 54.6211C73.9592 54.8118 74.1047 54.9706 74.2792 54.9706L75.8616 54.9706C76.0362 54.9706 76.1816 54.8118 76.1816 54.6211C76.1816 54.4304 76.0362 54.2716 75.8616 54.2716L74.2792 54.2716Z" fill="#319BE2"/>
<path d="M25.0335 54.9726C25.208 54.9726 25.3535 54.8137 25.3535 54.623C25.3506 54.4292 25.208 54.2735 25.0335 54.2735L23.4511 54.2735C23.3638 54.2735 23.2823 54.3116 23.2242 54.3752C23.166 54.4387 23.1311 54.5277 23.1311 54.623C23.1311 54.8137 23.2765 54.9726 23.4511 54.9726L25.0335 54.9726Z" fill="#319BE2"/>
<path d="M28.8422 72.3137L30.2094 71.4494C30.3635 71.3509 30.4159 71.1411 30.3286 70.9696C30.2384 70.8011 30.0435 70.7471 29.8894 70.8393L28.5222 71.7036C28.496 71.7195 28.4727 71.7385 28.4553 71.7576C28.3564 71.8656 28.3302 72.0404 28.4058 72.1802C28.4931 72.3518 28.688 72.4122 28.8422 72.3137Z" fill="#319BE2"/>
<path d="M38.8058 75.7899C38.7854 75.8121 38.7709 75.8343 38.7563 75.8629L37.9651 77.3564C37.8749 77.5248 37.9302 77.7377 38.0844 77.8362C38.2385 77.9347 38.4334 77.8744 38.5207 77.7091L39.3119 76.2157C39.4021 76.0472 39.3468 75.8343 39.1927 75.7358C39.0647 75.6532 38.9076 75.6786 38.8058 75.7899Z" fill="#319BE2"/>
<path d="M27.7537 29.2617L26.9044 30.986L25 31.2605L26.3726 32.5988L26.0466 34.4947L27.7451 33.6025L29.4437 34.4947L29.1177 32.5988L30.4903 31.2605L28.603 30.9774L27.7537 29.2617ZM28.6631 32.4444L28.8775 33.7054L27.7451 33.1135L26.6128 33.7054L26.8272 32.4444L25.9093 31.5522L27.1704 31.372L27.7366 30.2311L28.3028 31.372L29.5638 31.5522L28.6631 32.4444Z" fill="#319BE2"/>
<path d="M43.4878 26.4541L42.9044 25.2617L42.3125 26.4541L41 26.6429L41.9522 27.5694L41.7292 28.8733L42.9044 28.2556L44.0797 28.8733L43.8567 27.5694L44.8089 26.6429L43.4878 26.4541ZM43.5049 28.0927L42.9044 27.7752L42.3039 28.0927L42.4155 27.4235L41.9265 26.9431L42.6042 26.8488L42.9044 26.2397L43.2047 26.8488L43.8824 26.9431L43.3934 27.4235L43.5049 28.0927Z" fill="#319BE2"/>
<path d="M32.0245 20.2617C30.9093 20.2617 30 21.171 30 22.2863C30 23.4015 30.9093 24.3108 32.0245 24.3108C33.1398 24.3108 34.0491 23.4015 34.0491 22.2863C34.0491 21.171 33.1398 20.2617 32.0245 20.2617ZM32.0245 23.8819C31.141 23.8819 30.4289 23.1699 30.4289 22.2863C30.4289 21.4027 31.1495 20.6906 32.0245 20.6906C32.9081 20.6906 33.6202 21.4027 33.6202 22.2863C33.6202 23.1699 32.9081 23.8819 32.0245 23.8819Z" fill="#319BE2"/>
</svg>
