<svg width="100" height="100" viewBox="0 0 100 100" fill="none" xmlns="http://www.w3.org/2000/svg">
<rect width="100" height="100" rx="10" fill="white"/>
<path d="M65.584 66.7617C68.1153 66.7617 70.1673 64.7097 70.1673 62.1784C70.1673 57.9114 66.5891 56.1262 62.834 55.3799M55.5006 48.4284C59.5507 48.4284 62.834 45.1451 62.834 41.0951C62.834 37.045 59.5507 33.7617 55.5006 33.7617M34.4173 66.7619H54.584C57.1153 66.7619 59.1673 64.7099 59.1673 62.1786C59.1673 54.6972 48.1673 54.8453 44.5007 54.8453C40.834 54.8453 29.834 54.6972 29.834 62.1786C29.834 64.7099 31.886 66.7619 34.4173 66.7619ZM51.834 41.0951C51.834 45.1451 48.5507 48.4284 44.5007 48.4284C40.4506 48.4284 37.1673 45.1451 37.1673 41.0951C37.1673 37.045 40.4506 33.7617 44.5007 33.7617C48.5507 33.7617 51.834 37.045 51.834 41.0951Z" stroke="#777777" stroke-width="1.5" stroke-linecap="round" stroke-linejoin="round"/>
<path d="M79.848 68.6728C79.8197 69.7362 80.663 70.6168 81.7178 70.6449C82.7726 70.6729 83.6618 69.8298 83.6898 68.775C83.7179 67.7203 82.8748 66.8311 81.82 66.803C80.7652 66.775 79.8763 67.6095 79.848 68.6728ZM83.2696 68.7639C83.2477 69.5871 82.561 70.2382 81.7378 70.2163C80.9145 70.1944 80.2634 69.5077 80.2853 68.6845C80.3072 67.8612 80.9939 67.2101 81.8172 67.232C82.6404 67.2539 83.2915 67.9406 83.2696 68.7639Z" fill="#319BE2"/>
<path d="M81.6526 74.0737C81.7288 73.7925 81.8049 73.5113 81.8639 73.2297L81.446 73.1328C81.3784 73.4142 81.3111 73.687 81.2354 73.951L81.6526 74.0737Z" fill="#319BE2"/>
<path d="M76.2154 82.5898C76.6457 82.2236 77.0594 81.8313 77.4565 81.4214L77.147 81.1214C76.7673 81.5232 76.3537 81.9069 75.9323 82.2647L76.2154 82.5898Z" fill="#319BE2"/>
<path d="M64.4422 86.3513C64.1592 86.3438 63.885 86.3279 63.5937 86.3116L63.5651 86.7399C63.8563 86.7648 64.139 86.7809 64.4306 86.7887C64.7136 86.7962 64.9882 86.7949 65.2715 86.7939L65.2657 86.3646C64.9913 86.3573 64.7166 86.3586 64.4422 86.3513Z" fill="#319BE2"/>
<path d="M66.976 86.6618C67.5357 86.5908 68.1047 86.4944 68.6572 86.3718L68.5654 85.9489C68.0301 86.0719 67.4785 86.1602 66.9274 86.2314L66.976 86.6618Z" fill="#319BE2"/>
<path d="M78.5793 80.1302C78.9345 79.6848 79.2645 79.2131 79.5689 78.7406L79.2061 78.5078C78.9105 78.9719 78.5895 79.4268 78.2432 79.8638L78.5793 80.1302Z" fill="#319BE2"/>
<path d="M73.4241 84.5489C73.9207 84.2703 74.4008 83.9656 74.8642 83.6432L74.6161 83.2934C74.1615 83.6074 73.6899 83.9124 73.2108 84.1828L73.4241 84.5489Z" fill="#319BE2"/>
<path d="M80.4152 77.2603C80.669 76.7521 80.9061 76.2264 81.1089 75.6997L80.7098 75.5432C80.5072 76.0613 80.2791 76.5701 80.0343 77.0613L80.4152 77.2603Z" fill="#319BE2"/>
<path d="M70.3098 85.916C70.8465 85.7415 71.3841 85.5327 71.9051 85.3062L71.7352 84.9155C71.2143 85.142 70.6941 85.3427 70.1748 85.5091L70.3098 85.916Z" fill="#319BE2"/>
<path d="M61.1067 85.9285L61.0097 86.3464C61.2911 86.414 61.5816 86.4646 61.8634 86.515L61.9346 86.0964C61.6613 86.0462 61.3881 85.996 61.1067 85.9285Z" fill="#319BE2"/>
<path d="M16.7537 34.2773L15.9044 36.0016L14 36.2762L15.3726 37.6144L15.0466 39.5103L16.7451 38.6181L18.4437 39.5103L18.1177 37.6144L19.4903 36.2762L17.603 35.9931L16.7537 34.2773ZM17.6631 37.46L17.8775 38.721L16.7451 38.1291L15.6128 38.721L15.8272 37.46L14.9093 36.5678L16.1704 36.3877L16.7366 35.2467L17.3028 36.3877L18.5638 36.5678L17.6631 37.46Z" fill="#319BE2"/>
<path d="M34.3042 17.4541L33.7208 16.2617L33.1289 17.4541L31.8164 17.6429L32.7686 18.5694L32.5456 19.8733L33.7208 19.2556L34.8961 19.8733L34.6731 18.5694L35.6253 17.6429L34.3042 17.4541ZM34.3213 19.0927L33.7208 18.7752L33.1203 19.0927L33.2319 18.4235L32.7429 17.9431L33.4206 17.8488L33.7208 17.2397L34.0211 17.8488L34.6988 17.9431L34.2098 18.4235L34.3213 19.0927Z" fill="#319BE2"/>
<path d="M22.2785 23.1094C21.1632 23.1094 20.2539 24.0187 20.2539 25.1339C20.2539 26.2491 21.1632 27.1585 22.2785 27.1585C23.3937 27.1585 24.303 26.2491 24.303 25.1339C24.303 24.0187 23.3937 23.1094 22.2785 23.1094ZM22.2785 26.7295C21.3949 26.7295 20.6828 26.0175 20.6828 25.1339C20.6828 24.2503 21.4034 23.5383 22.2785 23.5383C23.162 23.5383 23.8741 24.2503 23.8741 25.1339C23.8741 26.0175 23.162 26.7295 22.2785 26.7295Z" fill="#319BE2"/>
</svg>
