<svg width="206" height="32" viewBox="0 0 206 32" fill="none" xmlns="http://www.w3.org/2000/svg">
<g clip-path="url(#clip0_2843_16262)">
<path d="M14.82 16.11C16.54 17.21 17.4 18.79 17.4 20.85C17.4 22.67 16.75 24.15 15.45 25.29C14.15 26.43 12.54 27 10.62 27H1.8V6H10.02C11.9 6 13.47 6.56 14.73 7.68C16.01 8.78 16.65 10.22 16.65 12C16.65 13.68 16.04 15.05 14.82 16.11ZM10.02 10.5H6.6V14.22H10.02C10.56 14.22 11 14.05 11.34 13.71C11.68 13.35 11.85 12.9 11.85 12.36C11.85 11.82 11.68 11.38 11.34 11.04C11 10.68 10.56 10.5 10.02 10.5ZM10.62 22.5C11.22 22.5 11.7 22.32 12.06 21.96C12.42 21.58 12.6 21.09 12.6 20.49C12.6 19.89 12.42 19.41 12.06 19.05C11.7 18.67 11.22 18.48 10.62 18.48H6.6V22.5H10.62ZM20.8383 27V5.1H25.3383V27H20.8383ZM39.5213 12H44.0212V27H39.5213V25.59C38.6212 26.81 37.1912 27.42 35.2313 27.42C33.6312 27.42 32.2912 26.87 31.2112 25.77C30.1512 24.67 29.6212 23.15 29.6212 21.21V12H34.1213V20.55C34.1213 21.43 34.3613 22.11 34.8413 22.59C35.3412 23.05 35.9713 23.28 36.7313 23.28C37.5913 23.28 38.2712 23.02 38.7713 22.5C39.2713 21.98 39.5213 21.21 39.5213 20.19V12ZM52.5415 21.3C53.0615 22.7 54.2615 23.4 56.1415 23.4C57.3615 23.4 58.3215 23.02 59.0215 22.26L62.6215 24.33C61.1415 26.39 58.9615 27.42 56.0815 27.42C53.5615 27.42 51.5415 26.67 50.0215 25.17C48.5215 23.67 47.7715 21.78 47.7715 19.5C47.7715 17.24 48.5115 15.36 49.9915 13.86C51.4915 12.34 53.4115 11.58 55.7515 11.58C57.9315 11.58 59.7415 12.34 61.1815 13.86C62.6415 15.36 63.3715 17.24 63.3715 19.5C63.3715 20.14 63.3115 20.74 63.1915 21.3H52.5415ZM52.4515 17.94H58.9015C58.4615 16.36 57.4015 15.57 55.7215 15.57C53.9815 15.57 52.8915 16.36 52.4515 17.94ZM87.3738 6H92.1738V27H87.3738V18.66H80.7738V27H75.9738V6H80.7738V14.04H87.3738V6ZM107.719 12H112.219V27H107.719V25.59C106.659 26.81 105.169 27.42 103.249 27.42C101.269 27.42 99.5785 26.66 98.1785 25.14C96.7785 23.6 96.0785 21.72 96.0785 19.5C96.0785 17.28 96.7785 15.41 98.1785 13.89C99.5785 12.35 101.269 11.58 103.249 11.58C105.169 11.58 106.659 12.19 107.719 13.41V12ZM101.569 22.17C102.229 22.83 103.089 23.16 104.149 23.16C105.209 23.16 106.069 22.83 106.729 22.17C107.389 21.51 107.719 20.62 107.719 19.5C107.719 18.38 107.389 17.49 106.729 16.83C106.069 16.17 105.209 15.84 104.149 15.84C103.089 15.84 102.229 16.17 101.569 16.83C100.909 17.49 100.579 18.38 100.579 19.5C100.579 20.62 100.909 21.51 101.569 22.17ZM126.29 12H131.27L125.72 27H120.62L115.07 12H120.05L123.17 21.51L126.29 12ZM137.555 21.3C138.075 22.7 139.275 23.4 141.155 23.4C142.375 23.4 143.335 23.02 144.035 22.26L147.635 24.33C146.155 26.39 143.975 27.42 141.095 27.42C138.575 27.42 136.555 26.67 135.035 25.17C133.535 23.67 132.785 21.78 132.785 19.5C132.785 17.24 133.525 15.36 135.005 13.86C136.505 12.34 138.425 11.58 140.765 11.58C142.945 11.58 144.755 12.34 146.195 13.86C147.655 15.36 148.385 17.24 148.385 19.5C148.385 20.14 148.325 20.74 148.205 21.3H137.555ZM137.465 17.94H143.915C143.475 16.36 142.415 15.57 140.735 15.57C138.995 15.57 137.905 16.36 137.465 17.94ZM160.928 11.58C162.528 11.58 163.858 12.13 164.918 13.23C165.998 14.33 166.538 15.85 166.538 17.79V27H162.038V18.45C162.038 17.57 161.788 16.9 161.288 16.44C160.808 15.96 160.188 15.72 159.428 15.72C158.568 15.72 157.888 15.98 157.388 16.5C156.888 17.02 156.638 17.79 156.638 18.81V27H152.138V12H156.638V13.41C157.538 12.19 158.968 11.58 160.928 11.58Z" fill="#0C031E"/>
<path d="M195.805 22.0981H205.707C205.707 16.6289 201.274 12.1953 195.805 12.1953V22.0981Z" fill="#FFAA00"/>
<path d="M176 22.0981H185.903C185.903 16.6289 181.469 12.1953 176 12.1953V22.0981Z" fill="#FF3377"/>
<path d="M185.902 22.0977H195.805C195.805 27.5668 191.371 32.0004 185.902 32.0004V22.0977Z" fill="#FF3377"/>
<path d="M204.417 10.9028H194.514C194.514 16.3719 190.08 20.8056 184.611 20.8056L184.611 1L194.514 1C199.983 1 204.417 5.43363 204.417 10.9028Z" fill="#00FFD5"/>
</g>
<defs>
<clipPath id="clip0_2843_16262">
<rect width="205.707" height="32" fill="white"/>
</clipPath>
</defs>
</svg>
