<svg width="339" height="56" viewBox="0 0 339 56" fill="none" xmlns="http://www.w3.org/2000/svg">
<g clip-path="url(#clip0_2843_16295)">
<path d="M24.7 26.85C27.5667 28.6833 29 31.3167 29 34.75C29 37.7833 27.9167 40.25 25.75 42.15C23.5833 44.05 20.9 45 17.7 45H3V10H16.7C19.8333 10 22.45 10.9333 24.55 12.8C26.6833 14.6333 27.75 17.0333 27.75 20C27.75 22.8 26.7333 25.0833 24.7 26.85ZM16.7 17.5H11V23.7H16.7C17.6 23.7 18.3333 23.4167 18.9 22.85C19.4667 22.25 19.75 21.5 19.75 20.6C19.75 19.7 19.4667 18.9667 18.9 18.4C18.3333 17.8 17.6 17.5 16.7 17.5ZM17.7 37.5C18.7 37.5 19.5 37.2 20.1 36.6C20.7 35.9667 21 35.15 21 34.15C21 33.15 20.7 32.35 20.1 31.75C19.5 31.1167 18.7 30.8 17.7 30.8H11V37.5H17.7ZM34.7305 45V8.5H42.2305V45H34.7305ZM65.8688 20H73.3687V45H65.8688V42.65C64.3688 44.6833 61.9854 45.7 58.7188 45.7C56.0521 45.7 53.8188 44.7833 52.0188 42.95C50.2521 41.1167 49.3688 38.5833 49.3688 35.35V20H56.8688V34.25C56.8688 35.7167 57.2688 36.85 58.0688 37.65C58.9021 38.4167 59.9521 38.8 61.2188 38.8C62.6521 38.8 63.7854 38.3667 64.6188 37.5C65.4521 36.6333 65.8688 35.35 65.8688 33.65V20ZM87.5691 35.5C88.4358 37.8333 90.4358 39 93.5691 39C95.6025 39 97.2025 38.3667 98.3691 37.1L104.369 40.55C101.902 43.9833 98.2691 45.7 93.4691 45.7C89.2691 45.7 85.9025 44.45 83.3691 41.95C80.8691 39.45 79.6191 36.3 79.6191 32.5C79.6191 28.7333 80.8525 25.6 83.3191 23.1C85.8191 20.5667 89.0191 19.3 92.9191 19.3C96.5525 19.3 99.5691 20.5667 101.969 23.1C104.402 25.6 105.619 28.7333 105.619 32.5C105.619 33.5667 105.519 34.5667 105.319 35.5H87.5691ZM87.4191 29.9H98.1691C97.4358 27.2667 95.6691 25.95 92.8691 25.95C89.9691 25.95 88.1525 27.2667 87.4191 29.9ZM145.623 10H153.623V45H145.623V31.1H134.623V45H126.623V10H134.623V23.4H145.623V10ZM179.531 20H187.031V45H179.531V42.65C177.764 44.6833 175.281 45.7 172.081 45.7C168.781 45.7 165.964 44.4333 163.631 41.9C161.298 39.3333 160.131 36.2 160.131 32.5C160.131 28.8 161.298 25.6833 163.631 23.15C165.964 20.5833 168.781 19.3 172.081 19.3C175.281 19.3 177.764 20.3167 179.531 22.35V20ZM169.281 36.95C170.381 38.05 171.814 38.6 173.581 38.6C175.348 38.6 176.781 38.05 177.881 36.95C178.981 35.85 179.531 34.3667 179.531 32.5C179.531 30.6333 178.981 29.15 177.881 28.05C176.781 26.95 175.348 26.4 173.581 26.4C171.814 26.4 170.381 26.95 169.281 28.05C168.181 29.15 167.631 30.6333 167.631 32.5C167.631 34.3667 168.181 35.85 169.281 36.95ZM210.483 20H218.783L209.533 45H201.033L191.783 20H200.083L205.283 35.85L210.483 20ZM229.259 35.5C230.125 37.8333 232.125 39 235.259 39C237.292 39 238.892 38.3667 240.059 37.1L246.059 40.55C243.592 43.9833 239.959 45.7 235.159 45.7C230.959 45.7 227.592 44.45 225.059 41.95C222.559 39.45 221.309 36.3 221.309 32.5C221.309 28.7333 222.542 25.6 225.009 23.1C227.509 20.5667 230.709 19.3 234.609 19.3C238.242 19.3 241.259 20.5667 243.659 23.1C246.092 25.6 247.309 28.7333 247.309 32.5C247.309 33.5667 247.209 34.5667 247.009 35.5H229.259ZM229.109 29.9H239.859C239.125 27.2667 237.359 25.95 234.559 25.95C231.659 25.95 229.842 27.2667 229.109 29.9ZM268.213 19.3C270.879 19.3 273.096 20.2167 274.863 22.05C276.663 23.8833 277.563 26.4167 277.563 29.65V45H270.063V30.75C270.063 29.2833 269.646 28.1667 268.813 27.4C268.013 26.6 266.979 26.2 265.713 26.2C264.279 26.2 263.146 26.6333 262.313 27.5C261.479 28.3667 261.063 29.65 261.063 31.35V45H253.563V20H261.063V22.35C262.563 20.3167 264.946 19.3 268.213 19.3Z" fill="white"/>
<path d="M321.666 38.6659H339C339 29.0927 331.239 21.332 321.666 21.332V38.6659Z" fill="#FFAA00"/>
<path d="M287 38.6659H304.334C304.334 29.0927 296.573 21.332 287 21.332V38.6659Z" fill="#FF3377"/>
<path d="M304.334 38.668H321.668C321.668 48.2412 313.907 56.0018 304.334 56.0018V38.668Z" fill="#FF3377"/>
<path d="M336.742 19.0721H319.408C319.408 28.6453 311.647 36.406 302.074 36.406L302.074 1.73828L319.408 1.73828C328.981 1.73828 336.742 9.49891 336.742 19.0721Z" fill="#00FFD5"/>
</g>
<defs>
<clipPath id="clip0_2843_16295">
<rect width="339" height="56" fill="white"/>
</clipPath>
</defs>
</svg>
