<svg xmlns="http://www.w3.org/2000/svg" viewBox="0 0 320 220">
  <defs>
    <linearGradient id="panel2-bg" x1="50%" x2="50%" y1="0%" y2="100%">
      <stop offset="0%" stop-color="#f2f8ff"/>
      <stop offset="100%" stop-color="#d6e6fb"/>
    </linearGradient>
    <linearGradient id="panel2-box" x1="0%" x2="100%" y1="0%" y2="100%">
      <stop offset="0%" stop-color="#f5d8ab"/>
      <stop offset="100%" stop-color="#e2b779"/>
    </linearGradient>
  </defs>
  <g fill="none" fill-rule="evenodd">
    <rect width="320" height="220" rx="28" fill="url(#panel2-bg)"/>
    <ellipse cx="160" cy="188" rx="96" ry="20" fill="#cadef7"/>
    <g transform="translate(70 46)">
      <path d="M40 0l68 24 68-24v110l-68 24-68-24z" fill="#f9e8c7"/>
      <path d="M108 134l68-24V0l-68 24z" fill="url(#panel2-box)"/>
      <path d="M40 0l68 24v110l-68-24z" fill="#efcc92"/>
      <path d="M84 40l40 40" stroke="#1f4c8f" stroke-width="8" stroke-linecap="round"/>
      <circle cx="84" cy="40" r="14" fill="#1f4c8f" opacity=".45"/>
      <circle cx="124" cy="80" r="10" fill="#1f4c8f"/>
      <path d="M24 112h48" stroke="#1f4c8f" stroke-width="8" stroke-linecap="round" opacity=".3"/>
    </g>
    <g transform="translate(212 56)">
      <rect x="2" y="24" width="20" height="60" rx="4" fill="#4379c5"/>
      <rect x="26" y="8" width="20" height="76" rx="4" fill="#2f5fa4"/>
      <rect x="50" width="20" height="84" rx="4" fill="#1f4c8f"/>
      <path d="M8 44l20-16 16 10 20-22" stroke="#1f4c8f" stroke-width="6" stroke-linecap="round" stroke-linejoin="round"/>
      <path d="M62 16v14H46" stroke="#1f4c8f" stroke-width="6" stroke-linecap="round" stroke-linejoin="round"/>
    </g>
    <circle cx="84" cy="164" r="9" fill="#4f8fda" opacity=".35"/>
    <circle cx="244" cy="68" r="7" fill="#1f4c8f" opacity=".22"/>
  </g>
</svg>
