<svg xmlns="http://www.w3.org/2000/svg" viewBox="0 0 320 220">
  <defs>
    <linearGradient id="panel-bg" x1="50%" x2="50%" y1="0%" y2="100%">
      <stop offset="0%" stop-color="#f3f7ff"/>
      <stop offset="100%" stop-color="#dbe7fb"/>
    </linearGradient>
    <linearGradient id="panel-box" x1="0%" x2="100%" y1="0%" y2="100%">
      <stop offset="0%" stop-color="#f4d5a7"/>
      <stop offset="100%" stop-color="#e0b474"/>
    </linearGradient>
    <linearGradient id="panel-shield" x1="50%" x2="50%" y1="0%" y2="100%">
      <stop offset="0%" stop-color="#1f4c8f"/>
      <stop offset="100%" stop-color="#143665"/>
    </linearGradient>
  </defs>
  <g fill="none" fill-rule="evenodd">
    <rect width="320" height="220" rx="28" fill="url(#panel-bg)"/>
    <ellipse cx="154" cy="190" rx="92" ry="18" fill="#c6d8f5"/>
    <g transform="translate(82 54)">
      <path d="M0 62l70 26 70-26v-52L70 10 0 36z" fill="#f9e5c4"/>
      <path d="M70 10l70 26v52l-70 26V10z" fill="url(#panel-box)"/>
      <path d="M0 36l70 26v52L0 88z" fill="#f4d5a7"/>
      <path d="M108 64l28 12v13.5c0 14.25-8.62 26.76-21 31.5-12.38-4.74-21-17.25-21-31.5V76z" fill="url(#panel-shield)"/>
      <path d="M102 84l8 8 18-18" stroke="#fff" stroke-width="5" stroke-linecap="round" stroke-linejoin="round"/>
    </g>
    <g stroke="#1f4c8f" stroke-linecap="round" stroke-width="7">
      <path d="M222 62c0-22-18-40-40-40-22 0-40 18-40 40" opacity=".4"/>
      <path d="M146 62l-6-18" opacity=".4"/>
      <path d="M230 62h-54" opacity=".4"/>
    </g>
    <circle cx="236" cy="144" r="10" fill="#1f4c8f" opacity=".35"/>
    <circle cx="92" cy="66" r="8" fill="#4d81c5" opacity=".4"/>
  </g>
</svg>
