<svg width="182" height="49" viewBox="0 0 182 49" fill="none" xmlns="http://www.w3.org/2000/svg">
<g clip-path="url(#clip0_2811_19006)">
<path opacity="0.99" d="M13.2563 18.1907C11.1673 18.3385 9.22667 19.3797 8.31881 21.1766C7.12409 23.1078 7.12409 25.9594 8.02182 27.8872C8.76768 29.3718 10.2594 30.5608 11.9165 31.0209C14.7514 31.6154 17.6168 30.7253 19.1085 28.3474C20.3032 26.4027 20.3032 23.269 19.257 21.1766C18.0622 19.0975 15.6762 18.2075 13.2597 18.2075V18.194L13.2563 18.1907ZM19.1085 15.0738C19.257 14.4793 19.1085 13.7236 19.257 13.1291C21.643 12.9814 24.2114 13.1291 26.7459 13.1291V36.5325H19.554C19.4055 35.4947 19.7025 34.4401 19.4055 33.5466C17.6134 36.3679 14.1676 36.8147 11.0188 36.9624C10.4956 36.9557 9.97591 36.9121 9.45954 36.8348C8.94318 36.7542 8.43356 36.6366 7.93407 36.4855C7.43458 36.331 6.94859 36.1463 6.4761 35.9212C6.00361 35.6996 5.548 35.4443 5.11263 35.1555C4.67726 34.8666 4.26215 34.5509 3.87403 34.2049C3.48254 33.859 3.12142 33.4862 2.78393 33.0865C2.44643 32.6868 2.14269 32.267 1.86594 31.8236C1.5892 31.3803 1.34958 30.9201 1.14033 30.4432C-0.651756 26.1206 -0.499884 20.1522 2.78055 16.5752C6.52673 12.2525 12.524 11.6446 17.3299 13.7404C17.9272 14.036 18.5246 14.6305 19.122 15.0772H19.1085V15.0738ZM46.2362 18.933C43.8501 17.744 40.6844 18.0429 38.5953 19.6752C38.349 19.9305 38.1195 20.2059 37.9136 20.4948C37.7077 20.7836 37.5221 21.0859 37.3567 21.405C37.1947 21.7207 37.053 22.0465 36.9382 22.3857C36.8235 22.7216 36.7324 23.0642 36.6649 23.4135C36.5974 23.7628 36.5603 24.1154 36.5434 24.4715C36.5299 24.8275 36.54 25.1801 36.5771 25.5362C36.6143 25.8888 36.675 26.2381 36.7627 26.5841C36.8505 26.93 36.9619 27.2659 37.1002 27.595C37.2656 27.9981 37.4782 28.3709 37.7415 28.7202C38.0014 29.0695 38.3017 29.3785 38.6392 29.6539C38.9767 29.926 39.3446 30.1544 39.7428 30.3357C40.1411 30.5171 40.5528 30.6481 40.9814 30.7287C43.3844 31.1754 46.5332 30.8765 48.0384 28.5019C49.3816 26.5572 49.5301 23.4235 48.4873 21.1799C48.1903 20.2899 47.2925 19.6954 46.2328 18.9531V18.9397L46.2362 18.933ZM48.6526 15.665C48.8011 14.9227 48.6526 13.7203 48.8011 12.8302H56.1416V34.6013C55.9931 39.3673 55.2473 44.4456 50.7383 47.1359C45.8008 49.8094 38.6055 49.3627 33.9514 46.2459C33.3676 45.8462 32.8343 45.3894 32.3483 44.8755C31.8657 44.3616 31.4405 43.8007 31.0827 43.1928C30.7216 42.5849 30.4314 41.9467 30.212 41.2784C29.9926 40.61 29.8441 39.9214 29.7766 39.2228L37.863 39.0751C38.16 39.6695 38.16 40.4118 38.4603 41.1675C39.8036 43.3943 42.5035 43.2466 44.9065 43.0988C46.3982 42.8032 47.8899 41.3153 48.1903 39.8308C48.6391 38.0473 48.3388 36.0892 48.4873 34.3057L48.3388 34.0101C47.9371 34.3729 47.5119 34.7054 47.0597 35.0077C46.6074 35.31 46.1383 35.5753 45.6523 35.8104C45.163 36.0455 44.6601 36.2403 44.1437 36.4015C43.6274 36.5628 43.0975 36.687 42.5643 36.771C42.0276 36.855 41.491 36.902 40.9477 36.9087C40.4043 36.9154 39.8643 36.8852 39.3277 36.8147C38.7911 36.7441 38.2612 36.6366 37.7381 36.4889C37.215 36.3411 36.7088 36.1597 36.2126 35.938C35.7435 35.7264 35.2913 35.4846 34.8525 35.2126C34.4138 34.9405 33.9953 34.6449 33.5971 34.3191C33.1988 33.9934 32.8242 33.644 32.4698 33.2712C32.1155 32.8984 31.7915 32.5021 31.4877 32.0856C31.1874 31.6691 30.914 31.2359 30.671 30.7824C30.428 30.3324 30.212 29.8655 30.0298 29.3852C29.8475 28.9049 29.6956 28.4179 29.5775 27.9175C29.4594 27.417 29.3716 26.9132 29.3176 26.4027C29.0207 21.0288 30.8094 15.5037 36.0608 13.2769C39.9554 11.7924 45.6557 11.9402 48.656 15.6515V15.665H48.6526ZM72.483 18.1907C70.3805 18.3385 68.126 19.0807 67.0798 21.0254C66.9076 21.2975 66.7592 21.5796 66.6242 21.8718C66.4892 22.164 66.3812 22.463 66.2867 22.7686C66.1955 23.0742 66.1247 23.3866 66.074 23.7023C66.0234 24.018 65.9964 24.3371 65.9897 24.6562C65.9829 24.9753 65.9998 25.2943 66.0335 25.6134C66.0707 25.9325 66.128 26.2448 66.209 26.5572C66.2867 26.8662 66.3879 27.1718 66.5094 27.4674C66.6309 27.763 66.7693 28.0518 66.9279 28.3306C67.9708 29.9629 69.4658 31.0175 71.2714 31.1653C73.3605 31.3131 75.9255 30.8698 77.4206 28.9385C78.7638 26.6949 79.2127 23.8602 77.8694 21.321C76.8266 19.242 74.7375 18.3519 72.483 18.2041V18.1907ZM78.0179 15.665L78.1664 12.978H85.6588L85.5103 36.546C85.3618 38.4772 85.0614 40.1095 84.4674 41.9064C83.5731 44.8923 80.8866 47.5793 77.8728 48.3215C72.3379 49.8061 66.0403 48.916 61.9971 45.0535C61.2108 44.2743 60.583 43.3809 60.1173 42.3767C59.6515 41.3724 59.3782 40.3178 59.2938 39.2161L59.4423 39.0683H67.5286C67.6771 40.5529 68.423 42.3498 70.0801 42.8099C72.1692 43.2566 74.4236 43.4044 76.2292 42.2154C78.4668 40.123 78.0213 36.8415 77.8694 34.0034C77.4881 34.3259 77.0898 34.6214 76.6713 34.8935C76.2528 35.1655 75.8208 35.4074 75.3686 35.6257C74.9164 35.844 74.4574 36.0287 73.9849 36.1866C73.5124 36.3444 73.0298 36.4721 72.5404 36.5695C72.051 36.6669 71.5583 36.7307 71.0588 36.7676C70.5593 36.8012 70.0632 36.8046 69.5637 36.7777C69.0642 36.7508 68.5715 36.6904 68.0788 36.5997C67.5894 36.509 67.1034 36.3881 66.6309 36.237C66.1044 36.0422 65.5948 35.8138 65.0987 35.5518C64.6026 35.2898 64.1301 34.9942 63.6745 34.6651C63.2188 34.3359 62.7902 33.9799 62.3852 33.5937C61.9802 33.2074 61.6023 32.7943 61.2546 32.3577C60.907 31.921 60.5898 31.4609 60.3029 30.9806C60.0194 30.5003 59.7663 29.9999 59.5503 29.486C59.3343 28.9721 59.1521 28.4414 59.0103 27.904C58.8686 27.3666 58.7606 26.8158 58.6897 26.2616C58.3927 21.7778 59.4355 17.4551 63.0164 14.4726C66.1787 12.3936 70.5222 11.3557 74.4169 12.6891C75.6116 13.5792 76.9683 14.6204 78.0146 15.6582V15.6717L78.0179 15.665ZM170.039 18.3385C169.715 18.2612 169.384 18.2108 169.05 18.184C168.716 18.1571 168.382 18.1537 168.051 18.1773C167.717 18.2008 167.386 18.2478 167.062 18.3183C166.735 18.3889 166.418 18.4863 166.104 18.6038C165.79 18.7214 165.489 18.8658 165.199 19.027C164.909 19.1916 164.632 19.3763 164.369 19.5812C164.106 19.7861 163.859 20.0111 163.63 20.2529C163.4 20.4948 163.191 20.7534 162.999 21.0254C161.507 23.1045 161.804 25.6436 162.85 27.7361C162.995 28.0014 163.157 28.2533 163.336 28.4952C163.515 28.737 163.714 28.962 163.927 29.177C164.139 29.3886 164.366 29.5867 164.609 29.7681C164.848 29.9495 165.101 30.1107 165.368 30.2551C165.631 30.3995 165.905 30.5238 166.188 30.6313C166.472 30.7388 166.758 30.8227 167.055 30.8866C167.349 30.9504 167.649 30.994 167.95 31.0175C168.25 31.0411 168.55 31.0411 168.854 31.0175C169.306 30.9537 169.749 30.8463 170.177 30.6884C170.606 30.5305 171.014 30.3324 171.399 30.0872C171.784 29.842 172.141 29.5632 172.465 29.2442C172.789 28.9251 173.08 28.5758 173.329 28.1962C174.538 26.2516 174.838 23.2657 173.643 21.1732C173.225 20.5116 172.705 19.9406 172.087 19.4569C171.47 18.9733 170.791 18.6038 170.046 18.3519V18.3385H170.039ZM179.782 17.5962C182.469 21.1766 182.766 27.2928 180.38 31.0209C177.082 36.247 171.085 37.5838 165.084 36.6937C160.906 36.0993 156.252 32.9656 155.206 28.6295C154.163 24.0113 154.909 18.933 158.338 15.8127C162.843 11.9234 170.484 11.03 175.736 13.8681C177.227 14.7581 178.571 15.9471 179.765 17.5962H179.779H179.782ZM120.275 17.744C119.081 16.8539 117.292 16.8539 115.8 17.2973C113.995 17.8918 112.486 19.823 112.189 21.6199H122.381L121.933 20.1354C121.636 19.2453 121.187 18.2041 120.292 17.7608L120.279 17.7473L120.275 17.744ZM127.93 18.0429C129.125 20.2697 129.422 22.9735 129.422 25.647L128.973 25.7948C123.721 25.647 117.589 25.7948 112.186 25.7948L112.037 25.9426C112.186 28.1862 112.932 30.4264 114.872 31.6154C116.826 32.5054 119.678 32.3577 121.183 30.5776L122.527 28.9452L129.27 29.9831C127.629 34.7491 122.527 36.8449 117.886 37.1404C113.08 37.436 107.842 35.6559 105.591 30.8731C103.651 26.2549 103.799 19.3931 107.68 15.8161C111.44 11.9267 117.886 11.3322 122.827 13.2769C124.916 14.0192 127.019 15.9504 127.93 18.0429ZM105.443 12.8302C105.146 14.7615 104.697 16.6927 104.4 18.7852C102.311 18.1907 98.9965 17.7473 97.2078 19.6752C95.7161 21.3244 95.4157 23.5646 95.4157 25.8082L95.2672 36.546H87.9099V12.978H95.4022C95.5507 13.5725 95.2537 14.6103 95.5507 15.2048C97.6398 11.9368 101.997 11.9368 105.443 12.8302ZM139.317 21.3244L139.465 21.4721L147.255 12.978H156.85C153.269 16.6894 149.658 19.6887 146.06 23.4168L157.595 36.247H147.866C144.865 33.1134 142.462 29.6841 139.465 26.5505L139.317 26.6983V36.0825H131.976V0H139.317V21.3244Z" fill="#FD6E39"/>
</g>
<defs>
<clipPath id="clip0_2811_19006">
<rect width="182" height="49" fill="white"/>
</clipPath>
</defs>
</svg>
