<svg width="242" height="46" viewBox="0 0 242 46" fill="none" xmlns="http://www.w3.org/2000/svg">
<g clip-path="url(#clip0_2811_19010)">
<path d="M52.7781 11.623C52.7781 11.623 52.9313 13.4276 52.1806 14.6204C51.2767 16.4249 43.9076 28.7354 41.3491 32.9409C39.6945 35.6476 37.8867 36.6875 37.8867 36.6875H53.3756C53.3756 36.6875 52.7781 36.5346 53.2224 34.7301C53.6667 32.9256 62.9967 17.6177 62.9967 17.6177C62.9967 17.6177 64.2071 16.1191 65.8617 16.1191H70.6722C70.6722 16.1191 72.6332 15.9661 71.7293 17.7706C70.9786 19.2693 62.7057 33.0785 61.6486 34.2866C59.8408 36.5346 58.7837 36.6875 58.7837 36.6875H73.9661C73.9661 36.6875 73.8129 35.1889 74.5636 33.5373C75.3143 31.8857 82.377 20.4774 82.377 20.4774C82.377 20.4774 85.3798 16.1191 84.338 14.024C83.1277 11.4701 80.7224 11.623 80.7224 11.623H70.7948C70.7948 11.623 68.5427 11.4701 67.4856 12.0665C65.9842 12.8159 65.0803 14.024 65.0803 14.024L65.9842 11.623H52.7474H52.7781Z" fill="#FF0000"/>
<path d="M155.945 26.6405C155.945 26.6405 157.447 23.4902 158.81 22.5879C160.771 21.2422 162.87 21.2422 162.87 21.2422H181.224L177.915 26.6405H155.961H155.945Z" fill="#FF0000"/>
<path d="M210.088 11.623C210.088 11.623 210.241 13.4276 209.49 14.7733C208.586 16.5778 201.217 28.8883 198.812 33.0938C197.157 35.8006 195.35 36.8405 195.35 36.8405H210.838C210.838 36.8405 210.241 36.6875 210.685 34.883C211.13 33.0785 220.46 17.7707 220.46 17.7707C220.46 17.7707 221.67 16.272 223.325 16.272H228.135C228.135 16.272 230.096 16.1191 229.192 17.9236C228.442 19.4222 220.169 33.2314 219.111 34.4395C217.304 36.6875 216.247 36.8405 216.247 36.8405H231.429C231.429 36.8405 231.276 35.3418 232.026 33.6902C232.777 32.0386 239.84 20.6304 239.84 20.6304C239.84 20.6304 242.705 16.272 241.801 14.1769C240.591 11.623 238.185 11.776 238.185 11.776H228.258C228.258 11.776 226.006 11.623 224.948 12.2195C223.447 12.9688 222.543 14.1769 222.543 14.1769L223.294 11.776H210.057V11.623H210.088Z" fill="#FF0000"/>
<path d="M44.6588 22.5872C44.6588 22.5872 47.5237 18.2289 46.6198 15.9809C45.5627 13.1211 43.0042 13.5799 43.0042 13.5799H25.5543C25.5543 13.5799 24.8036 13.8858 24.4972 12.8306C24.1908 11.7754 25.4011 10.4297 25.4011 10.4297C25.4011 10.4297 25.8454 9.52739 26.6114 8.93099C27.3774 8.33458 28.8635 8.33458 28.8635 8.33458H49.3162C49.3162 8.33458 49.9137 8.18165 50.9708 8.64043C51.5682 8.79335 52.3189 9.84854 52.3189 9.84854L58.0487 0.0613034H30.9777C30.9777 0.0613034 26.4735 -0.382181 24.0529 1.11649C21.0501 2.76809 20.4373 3.51742 19.0891 5.6125C18.3384 6.66769 12.0265 17.6172 12.0265 17.6172C12.0265 17.6172 10.6783 19.4217 10.8162 20.9203C10.9694 21.6697 11.1226 22.419 12.1643 22.8778C13.2061 23.3366 22.5362 23.1836 22.5362 23.1836C22.5362 23.1836 23.8844 23.3366 24.4972 22.8778C25.7075 21.9755 27.0557 20.3239 28.2507 20.0181C29.5989 19.7122 31.2535 19.5746 32.617 20.4616C33.8273 21.3638 33.5209 21.2109 34.578 22.7096C35.3287 23.9177 35.3287 24.5141 35.3287 24.5141L32.1727 23.306C32.1727 23.306 31.1156 22.7096 30.5181 23.0001C29.9206 23.1531 29.1699 23.0001 28.266 25.2481C27.6685 26.8997 27.6685 28.1078 28.8635 28.7043C30.5181 29.4536 33.5209 30.2029 33.5209 30.2029C33.5209 30.2029 31.8663 31.7016 29.6142 32.0074C27.6532 32.1604 25.8607 31.411 25.11 30.6617C23.8997 29.4536 24.6657 29.7594 23.7618 29.163C22.7047 28.4137 20.7591 28.4137 20.7591 28.4137H8.73259C8.73259 28.4137 8.1351 28.7195 6.77159 28.1078C5.56128 27.6644 5.71448 27.3585 5.71448 27.3585L0 36.9622H27.3774C27.3774 36.9622 31.7437 37.2681 34.4401 36.06C37.4429 34.7142 39.2507 31.7016 39.2507 31.7016L44.6588 22.5414V22.5872Z" fill="#FF0000"/>
<path d="M98.0503 36.6865L99.1074 33.9797C99.1074 33.9797 96.8553 35.7842 94.8943 36.3806C93.5461 36.8241 92.7954 36.6865 92.7954 36.6865H81.9639C81.9639 36.6865 80.0029 36.8394 79.2522 35.4784C78.3483 33.9797 78.5015 33.0774 78.9458 32.0222C79.6965 30.3706 81.9486 26.7616 83.0057 24.9724C85.2578 21.3633 87.6631 20.3234 89.0266 19.8647C91.2787 19.2682 92.489 19.4212 94.1436 19.4212H103.918C103.918 19.4212 105.573 19.4212 106.476 19.1153C107.227 18.8095 107.534 18.0601 107.534 18.0601L107.84 17.3108C108.146 15.9651 106.936 16.1027 106.936 16.1027H93.4082C93.4082 16.1027 92.5043 16.1027 91.3093 16.2556C90.1143 16.4085 89.0572 17.0049 89.0572 17.0049L92.3664 11.4538H117.032C117.032 11.4538 119.437 11.1479 120.648 13.8547C121.552 15.9498 118.687 20.4611 118.687 20.4611C118.687 20.4611 111.471 31.8693 110.873 33.5209C110.123 35.1725 110.276 36.6712 110.276 36.6712H98.0962L98.0503 36.6865ZM103.014 24.8347H98.5099C98.5099 24.8347 97.1617 24.8347 95.7982 25.1406C94.8943 25.2935 92.1826 30.2483 92.3358 30.9976C92.489 31.594 93.3929 31.594 93.3929 31.594H98.0503C98.0503 31.594 99.2606 31.594 99.8581 30.8447C101.068 29.6366 103.32 25.5841 103.32 25.5841C103.32 25.5841 103.32 25.8899 103.32 25.2782C103.627 24.6818 103.014 24.8347 103.014 24.8347Z" fill="#FF0000"/>
<path d="M121.966 42.8491C121.215 44.5007 121.368 45.9994 121.368 45.9994H107.074C107.074 45.9994 107.519 45.25 108.131 44.5007C109.188 43.155 109.939 41.641 109.939 41.641C109.939 41.641 124.677 16.5765 125.581 14.772C126.332 13.4262 126.179 11.6217 126.179 11.6217H138.818V13.2733C138.818 13.2733 139.875 12.524 140.626 12.0652C141.223 11.7594 142.725 11.6217 142.725 11.6217H153.847C153.847 11.6217 156.252 11.3159 157.463 14.0227C158.367 16.1177 155.502 20.4761 155.502 20.4761L148.883 31.8844C148.883 31.8844 147.229 34.2853 144.977 35.631C142.265 37.1297 139.262 36.9768 139.262 36.9768L129.488 36.8238C129.488 36.8238 127.68 36.6709 127.083 35.7687C126.485 34.8664 126.776 35.0193 126.776 35.0193L121.966 42.8185V42.8491ZM140.013 16.1177C140.013 16.1177 138.665 15.9648 137.914 16.5612C137.163 17.1576 136.566 17.907 136.566 17.907L129.641 29.3152C129.641 29.3152 128.89 30.2175 129.197 30.9668C129.503 31.7161 130.545 31.4103 130.545 31.4103H135.049C135.049 31.4103 135.647 31.5632 136.551 31.1044C137.454 30.6609 138.358 29.2999 138.358 29.2999L144.977 18.3352C144.977 18.3352 145.727 17.5858 145.283 16.6836C144.977 16.0871 144.073 16.0871 144.073 16.0871H140.013V16.1177Z" fill="#FF0000"/>
<path d="M165.568 36.8391C165.568 36.8391 163.607 36.992 162.856 35.6309C161.952 34.1323 162.412 33.23 162.703 32.0219L164.802 28.2752H176.537C176.537 28.2752 176.093 29.3304 175.327 30.6762C174.882 31.4255 176.077 31.4255 176.077 31.4255H181.348C181.348 31.4255 183.753 31.5784 184.35 30.2174C184.795 29.3151 190.509 19.5585 190.509 19.5585C190.509 19.5585 191.857 17.754 191.719 17.0046C191.413 16.1024 189.912 16.1024 189.912 16.1024H186.296C186.296 16.1024 184.335 15.9494 183.891 16.6988C183.14 17.754 182.083 19.2526 182.083 19.2526H170.057L172.462 15.6436C172.462 15.6436 173.81 13.8391 175.327 12.7839C177.288 11.4381 179.54 11.4381 179.54 11.4381H201.05C201.05 11.4381 203.455 11.1323 204.665 13.8391C205.569 15.9341 202.704 20.2925 202.704 20.2925L195.933 31.7008C195.933 31.7008 194.125 34.1017 192.179 35.3098C189.467 36.9614 186.465 36.6555 186.465 36.6555L165.568 36.8085V36.8391Z" fill="#FF0000"/>
<path d="M235.045 35.0356C235.045 33.2311 236.546 31.7324 238.354 31.7324C240.162 31.7324 241.663 33.0782 241.663 35.0356C241.663 36.9931 240.162 38.3388 238.354 38.3388C236.546 38.1859 235.045 36.8401 235.045 35.0356Z" fill="#FF0000"/>
<path d="M237.757 36.686H237.006V33.3828H238.354C238.66 33.3828 238.952 33.3828 239.258 33.5357C239.564 33.6887 239.702 33.9792 239.702 34.438C239.702 34.8968 239.549 35.1873 239.105 35.3403L239.702 36.8389H238.798L238.354 35.4932H237.757V36.7013V36.686ZM237.757 34.8815H238.66C238.814 34.7286 238.814 34.5756 238.814 34.438C238.814 34.3004 238.66 34.1321 238.66 34.1321C238.507 33.9792 238.354 34.1321 238.216 34.1321H237.772V34.8815H237.757Z" fill="#FF0000"/>
</g>
<defs>
<clipPath id="clip0_2811_19010">
<rect width="242" height="46" fill="white"/>
</clipPath>
</defs>
</svg>
