<svg width="186" height="87" viewBox="0 0 186 87" fill="none" xmlns="http://www.w3.org/2000/svg">
<g clip-path="url(#clip0_2811_18988)">
<path d="M34.738 0.798056C45.4635 -1.28281 56.9896 0.716083 66.1991 6.67178C76.1745 12.9333 83.3574 23.448 85.5668 35.0252C87.9622 46.9271 85.0783 59.7623 77.7819 69.4636C69.8772 80.2084 56.769 87.0059 43.3802 86.842C31.7406 87.1005 20.2303 82.097 12.187 73.7451C2.99005 64.3781 -1.43821 50.7295 0.326791 37.7366C2.40697 19.7466 16.9493 4.12745 34.738 0.798056ZM40.0897 22.7828C37.9623 23.9209 37.2342 26.8783 38.4634 28.915C40.6822 32.8088 48.3663 31.7179 48.2182 26.7333C48.3947 22.6377 43.1879 21.1559 40.0929 22.7828H40.0897ZM27.221 26.4716C25.6671 27.1179 24.7531 28.8393 24.8067 30.4851C24.7405 35.7472 24.8162 40.9998 24.7878 46.2619C24.8351 47.8698 24.4821 49.9349 22.7738 50.5813C19.8805 51.896 16.6625 50.3227 14.6485 48.1662C12.3635 48.491 11.0807 51.4672 11.3391 53.649C11.7079 57.0887 15.3324 58.8543 18.4117 59.2453C23.1646 59.9389 28.9513 59.5511 32.1693 55.4997C35.4787 51.319 34.7474 45.6786 34.8231 40.7129C34.6844 36.7908 35.1004 32.8151 34.6182 28.9308C33.7483 25.7307 29.7928 25.8599 27.221 26.4716ZM60.4282 33.8429C52.2934 35.1009 48.1331 44.8211 51.4235 52.0064C54.5469 59.9042 65.4679 61.5689 72.0961 57.2401C79.1498 52.5707 79.1781 40.5836 72.178 35.8576C68.793 33.4992 64.3931 33.0736 60.4282 33.8429ZM39.9794 34.3978C38.4256 35.2491 38.186 37.1628 38.2428 38.755C38.2995 44.2945 38.1955 49.8246 38.29 55.3547C38.3373 60.4307 47.6382 60.4591 47.7675 55.4114C47.8147 49.2792 47.8589 43.1406 47.7391 37.0178C47.405 33.3384 42.5607 33.0326 39.9826 34.4009L39.9794 34.3978Z" fill="#D9008D"/>
<path d="M62.3081 41.0279C66.0361 39.681 69.9545 43.2934 69.277 47.0963C69.1584 50.8368 64.5967 53.4023 61.3839 51.4242C57.3281 49.3431 57.8401 42.2934 62.3081 41.031V41.0279Z" fill="#D9008D"/>
<path d="M40.1856 22.8212C43.287 21.1915 48.4959 22.6727 48.3192 26.7784C48.4675 31.7716 40.7756 32.8644 38.5545 28.9639C37.324 26.9269 38.056 23.9613 40.1825 22.8212H40.1856Z" fill="white"/>
<path d="M96.1353 27.6288C100.568 23.8626 107.06 23.7227 112.432 25.1689C116.587 26.1668 119.677 30.0157 119.806 34.3064C117.182 34.3254 114.567 34.335 111.942 34.3064C111.117 30.092 105.773 29.7201 102.592 31.2489C100.413 32.3199 100.458 35.9559 102.861 36.7218C107.822 38.6701 113.507 38.9212 117.96 42.1185C122.671 45.764 121.827 53.8177 117.096 57.0914C112.236 60.5048 105.716 60.5207 100.142 59.1699C95.5598 58.1243 91.8855 54.1165 91.7559 49.3078C94.51 48.9073 97.302 49.2347 100.066 49.0758C100.493 54.3231 107.411 54.7998 111.095 52.8325C113.264 51.6216 113.292 48.3479 111.076 47.1752C106.374 44.5753 100.521 44.836 96.1353 41.5528C91.7306 38.3078 92.0436 31.0169 96.1353 27.6352V27.6288Z" fill="black"/>
<path d="M27.2918 26.5562C29.8725 25.9489 33.8496 25.8205 34.7236 28.9981C35.2081 32.8551 34.7901 36.8028 34.9294 40.6973C34.8566 45.6281 35.5881 51.2288 32.2632 55.38C29.0302 59.4029 23.2165 59.788 18.4413 59.0992C15.3476 58.7141 11.7061 56.961 11.3357 53.5423C11.076 51.3759 12.3679 48.4175 14.6605 48.0982C16.6839 50.2364 19.9169 51.7986 22.8238 50.4962C24.5432 49.8544 24.8947 47.807 24.8472 46.2072C24.8757 40.9822 24.7997 35.7666 24.8662 30.5415C24.8092 28.9073 25.7307 27.198 27.2918 26.5562Z" fill="white"/>
<path d="M126.393 26.2199C128.968 26.2105 131.547 26.2105 134.131 26.2199C134.214 28.7399 133.992 31.2661 134.122 33.7861C135.948 33.7391 137.765 33.7767 139.592 33.8237C139.453 35.5883 139.453 37.3529 139.592 39.1206C137.718 39.3243 135.68 38.7539 133.929 39.5061C134.457 43.496 133.771 47.5518 134.318 51.5229C135.061 53.8485 137.851 53.2969 139.712 53.112C139.684 55.0145 139.665 56.9076 139.703 58.8038C136.552 59.5592 133.038 59.7222 130.052 58.3086C127.319 56.8825 126.418 53.5915 126.399 50.7425C126.371 46.8905 126.399 43.0384 126.456 39.1864C124.889 39.1676 123.324 39.1488 121.766 39.1394C121.776 37.3748 121.766 35.6008 121.729 33.8362C123.35 33.808 124.964 33.7359 126.585 33.6607C126.317 31.1972 126.39 28.7054 126.39 26.2231L126.393 26.2199Z" fill="black"/>
<path d="M60.5684 33.8269C64.5362 33.0568 68.9425 33.4815 72.3269 35.8519C79.329 40.6023 79.3037 52.6477 72.2449 57.3442C65.6118 61.6953 54.686 60.0221 51.5571 52.0837C48.2643 44.8614 52.4277 35.0913 60.5684 33.8269ZM62.3378 41.0586C57.8243 42.3421 57.3039 49.4882 61.4042 51.5988C64.6529 53.608 69.2579 51.003 69.3778 47.2097C70.0622 43.353 66.1038 39.6896 62.3378 41.0554V41.0586Z" fill="white"/>
<path d="M148.499 33.7505C152.618 32.5183 157.211 32.4709 161.238 34.0665C164.541 35.3366 165.895 39.0996 165.888 42.3887C165.907 47.8926 165.888 53.4091 165.898 58.913C163.633 58.9225 161.362 58.913 159.096 58.932C159.049 58.18 158.948 56.6698 158.891 55.921C155.8 59.7566 150.074 60.7298 145.734 58.5434C141.112 56.1516 140.546 48.6825 144.832 45.7157C148.84 43.008 153.918 43.5388 158.511 43.4819C158.511 41.6367 158.631 39.4409 156.898 38.275C154.411 37.2007 150.903 37.7379 149.986 40.6194C147.629 40.6288 145.282 40.6288 142.934 40.6383C143.352 37.542 145.421 34.632 148.502 33.7537L148.499 33.7505ZM149.919 49.8389C148.584 52.6477 151.915 55.5008 154.614 54.4739C157.844 53.9368 158.91 50.3033 158.549 47.4661C155.664 47.5956 151.59 46.771 149.919 49.8389Z" fill="black"/>
<path d="M176.857 37.6719C178.495 34.2989 182.205 32.4482 185.89 33.2441C186.01 35.5243 185.918 37.8014 186 40.0817C183.937 39.9332 181.605 39.6363 179.835 40.9723C177.782 42.2893 177.169 44.9106 177.125 47.2066C177.078 51.1797 177.135 55.1559 177.125 59.129C174.579 59.1385 172.046 59.1764 169.5 59.0721C169.556 50.687 169.749 42.2861 169.408 33.9105C171.916 33.7052 174.434 33.8094 176.952 33.8094C176.813 35.0411 176.655 36.2728 176.488 37.5045C176.58 37.5424 176.766 37.6245 176.857 37.6719Z" fill="black"/>
<path d="M39.9049 34.5339C42.5371 33.1797 47.4831 33.4824 47.8242 37.1237C47.9464 43.1833 47.8982 49.2616 47.8531 55.3274C47.7212 60.326 38.2251 60.2979 38.1769 55.2712C38.0836 49.7983 38.1865 44.3253 38.1286 38.843C38.0707 37.2673 38.3185 35.3733 39.9017 34.5308L39.9049 34.5339Z" fill="white"/>
</g>
<defs>
<clipPath id="clip0_2811_18988">
<rect width="186" height="87" fill="white"/>
</clipPath>
</defs>
</svg>
