<svg width="162" height="37" viewBox="0 0 162 37" fill="none" xmlns="http://www.w3.org/2000/svg">
<g clip-path="url(#clip0_2811_19033)">
<path d="M10.7702 22.4495C7.42015 23.7195 5.86015 24.6195 5.86015 24.6195C5.48015 24.8095 5.01015 25.2695 4.80015 25.6395L2.24015 30.2695C2.04015 30.6395 2.20015 30.8295 2.61015 30.6995C2.61015 30.6995 3.64015 30.3695 4.64015 30.0795C7.06015 29.3695 11.5502 28.3195 11.5502 28.3195C11.9602 28.2195 12.4702 27.8395 12.6702 27.4795L16.2002 21.1095C16.4002 20.7395 16.2402 20.5495 15.8302 20.6795C15.8302 20.6795 13.3202 21.4795 10.7602 22.4495" fill="#F94D12"/>
<path d="M33.5394 25.1901C33.9594 25.1601 34.1394 24.8301 33.9394 24.4601L30.5594 18.3501C30.3594 17.9801 29.8394 17.7301 29.4194 17.7901L22.6494 18.9301C22.2294 19.0101 22.0594 19.3801 22.2594 19.7501L25.3094 25.2601C25.5094 25.6301 26.0294 25.9001 26.4494 25.8601L33.5394 25.1901Z" fill="#F94D12"/>
<path d="M28.9491 15.4407L28.3291 14.3307L27.1391 12.1907L25.5491 9.32068C25.3491 8.95068 24.8491 8.77068 24.4491 8.91068C19.8191 10.2507 15.2391 12.3007 13.0591 13.7307C11.8591 14.5207 10.8091 15.3807 10.8091 15.3807C10.4791 15.6507 10.0491 16.1707 9.83911 16.5407L6.98911 21.6907C6.78911 22.0607 6.92911 22.2107 7.31911 22.0307C7.31911 22.0307 8.05911 21.6907 8.88911 21.3507C11.6991 20.1707 14.7791 19.1407 18.0391 18.2907C18.0991 18.2707 18.1691 18.2607 18.2291 18.2407C21.8391 17.3207 28.5391 16.2407 28.5391 16.2407C28.9591 16.1707 29.1391 15.8207 28.9291 15.4507" fill="#F94D12"/>
<path d="M12.88 11.88C12.88 11.88 16.09 10 18.27 9.1C20.19 8.31 23.59 7.33 23.59 7.33C24 7.21 24.17 6.82 23.96 6.45L20.8 0.749999C20.15 -0.290001 19.14 -0.250001 18.52 0.879999L12.59 11.61C12.39 11.98 12.52 12.11 12.88 11.89" fill="#F94D12"/>
<path d="M39.2301 33.9996L35.5901 27.4196C35.3901 27.0496 34.9801 26.7696 34.6901 26.7796L34.4201 26.7996C20.9301 27.7196 11.0901 29.9496 5.20011 31.6596C3.45011 32.1696 1.40011 32.8596 1.40011 32.8596C1.00011 32.9996 0.710106 33.0696 0.300106 33.7696C0.300106 33.7696 0.270106 33.8296 0.190106 33.9696H0.180106C-0.329894 35.0696 0.250106 35.9396 1.55011 35.9396H1.62011H37.8601C39.1501 35.9396 39.7401 35.0696 39.2301 33.9696" fill="#F94D12"/>
<path d="M46.1207 22.2894H50.7807L49.6307 18.2194C49.0907 16.3294 48.6207 14.0894 48.4507 12.7194C48.2507 14.0994 47.7807 16.2994 47.2707 18.2194L46.1207 22.2894ZM51.3507 24.4094H45.5407L44.2207 29.1094C44.1207 29.4294 44.0207 29.5694 42.9407 29.5694C42.5707 29.5694 41.8607 29.5394 41.2207 29.4794L47.2307 9.75938C47.3007 9.46938 47.6707 9.35938 48.2807 9.35938C48.7507 9.35938 49.2207 9.38938 49.5607 9.44938L55.6107 29.0794C55.6707 29.3994 55.5107 29.5694 54.4307 29.5694C54.0207 29.5694 53.4807 29.5694 52.8107 29.5094L51.3607 24.4094H51.3507Z" fill="#F94D12"/>
<path d="M57.0002 15.8706C58.3202 15.3806 60.5502 14.8906 62.3402 14.8906C65.8802 14.8906 67.1002 15.9506 67.1002 18.7306V29.0506C67.1002 29.5106 67.0402 29.5106 64.2602 29.5106V19.4206C64.2602 17.6206 63.9202 16.9306 62.2302 16.9306C61.5202 16.9306 60.4702 17.1006 59.7302 17.4506V29.0606C59.7302 29.5206 59.6602 29.5206 56.9902 29.5206V15.8806L57.0002 15.8706Z" fill="#F94D12"/>
<path d="M69.5608 9.50922C69.5608 8.44922 70.0308 8.44922 72.3008 8.44922V16.0092C73.3508 15.2392 74.8008 14.8892 76.0808 14.8892C78.9808 14.8892 79.5908 16.2692 79.5908 18.6692V29.0492C79.5908 29.5092 79.4508 29.5092 76.7508 29.5092V19.3292C76.7508 18.0692 76.4808 17.0392 74.8208 17.0392C74.0808 17.0392 73.1008 17.2392 72.2908 17.8392V29.0492C72.2908 29.5092 72.2608 29.5092 69.5508 29.5092V9.49922L69.5608 9.50922Z" fill="#F94D12"/>
<path d="M86.8895 22.4904C85.5395 22.4904 84.3895 22.8904 84.3895 25.3804C84.3895 27.4704 85.2695 27.8404 86.5895 27.8404C87.3295 27.8404 88.0695 27.6104 88.3795 27.3504C88.4795 26.4004 88.4795 24.2804 88.4795 22.7304C88.0395 22.5604 87.3695 22.4704 86.8895 22.4704M81.9195 15.6704C82.4995 15.3504 84.4895 14.9004 87.0595 14.9004C89.9595 14.9004 91.2495 15.8204 91.2495 18.4004V19.9204C91.2495 23.2104 91.2195 26.6504 91.0495 28.8304C90.1395 29.2904 88.5495 29.8104 86.3495 29.8104C83.8895 29.8404 81.5195 29.3804 81.5195 25.4504C81.5195 21.5204 83.7495 20.7504 86.0095 20.7504C86.7495 20.7504 87.7995 20.8404 88.4695 21.1204V18.8604C88.4695 17.5104 87.7295 17.1704 86.3795 17.1704C84.6895 17.1704 82.8995 17.4604 81.9195 17.8004C81.6195 17.3404 81.5495 16.8204 81.5495 16.4804C81.5495 16.1604 81.6495 15.8504 81.9195 15.6804" fill="#F94D12"/>
<path d="M93.6799 15.8706C94.9999 15.3806 97.2199 14.8906 99.0199 14.8906C102.56 14.8906 103.78 15.9506 103.78 18.7306V29.0506C103.78 29.5106 103.71 29.5106 100.94 29.5106V19.4206C100.94 17.6206 100.6 16.9306 98.9099 16.9306C98.1999 16.9306 97.1499 17.1006 96.4099 17.4506V29.0606C96.4099 29.5206 96.3399 29.5206 93.6699 29.5206V15.8806L93.6799 15.8706Z" fill="#F94D12"/>
<path d="M129.241 28.7699C127.961 29.3699 126.031 29.7999 124.211 29.7999C120.191 29.7999 119.141 28.2499 119.141 25.0399V15.6699C119.141 15.3499 120.081 15.1799 121.981 15.1799V25.2399C121.981 27.0999 122.421 27.7599 124.241 27.7599C124.851 27.7599 125.791 27.6499 126.501 27.2399V15.6599C126.501 15.1699 126.531 15.1699 129.241 15.1699V28.7499V28.7699Z" fill="#F94D12"/>
<path d="M134.409 21.8004C135.699 21.8304 137.789 21.7704 138.969 21.4904C139.109 20.9704 139.139 20.3104 139.139 19.7704C139.109 17.7104 138.669 16.9304 137.209 16.9304C135.749 16.9304 134.609 17.9304 134.399 21.8004H134.409ZM141.799 19.5104C141.799 20.7704 141.699 22.2004 141.429 23.2404C139.099 23.6104 135.989 23.7004 134.369 23.7004C134.509 26.7404 135.449 27.5404 137.509 27.5404C138.859 27.5404 140.209 27.2004 141.359 26.6504C141.529 27.0804 141.599 27.7704 141.599 28.2304C141.599 29.1204 139.469 29.8104 136.939 29.8104C133.799 29.8104 131.539 28.6904 131.539 23.1004C131.539 15.9304 134.549 14.9004 137.519 14.9004C140.489 14.9004 141.809 16.4204 141.809 19.5204" fill="#F94D12"/>
<path d="M143.859 16.1904C145.179 15.4204 146.799 14.9004 148.449 14.9004C150.099 14.9004 150.819 15.3304 150.819 16.1004C150.819 16.4204 150.749 16.9904 150.519 17.4804C150.009 17.2504 149.469 17.1404 148.899 17.1404C148.159 17.1404 147.309 17.3404 146.669 17.8004L146.639 29.0604C146.639 29.5204 146.609 29.5204 143.869 29.5204V16.1904H143.859Z" fill="#F94D12"/>
<path d="M157.239 22.4904C155.889 22.4904 154.739 22.8904 154.739 25.3804C154.739 27.4704 155.619 27.8404 156.929 27.8404C157.669 27.8404 158.419 27.6104 158.719 27.3504C158.819 26.4004 158.819 24.2804 158.819 22.7304C158.379 22.5604 157.709 22.4704 157.229 22.4704M152.279 15.6704C152.849 15.3504 154.849 14.9004 157.409 14.9004C160.319 14.9004 161.599 15.8204 161.599 18.4004V19.9204C161.599 23.2104 161.569 26.6504 161.399 28.8304C160.489 29.2904 158.899 29.8104 156.699 29.8104C154.239 29.8404 151.869 29.3804 151.869 25.4504C151.869 21.5204 154.099 20.7504 156.359 20.7504C157.099 20.7504 158.149 20.8404 158.819 21.1204V18.8604C158.819 17.5104 158.079 17.1704 156.719 17.1704C155.029 17.1704 153.239 17.4604 152.259 17.8004C151.959 17.3404 151.889 16.8204 151.889 16.4804C151.889 16.1604 151.989 15.8504 152.259 15.6804" fill="#F94D12"/>
<path d="M111.6 27.4305C111.38 27.4305 111.17 27.4105 110.98 27.3605C109.64 27.0605 108.86 25.7705 108.67 23.4905C108.64 23.1105 108.62 22.7005 108.62 22.2605C108.62 21.9905 108.63 21.7305 108.65 21.4705C108.73 20.0605 109.03 19.0005 109.55 18.3205C110.15 17.5305 111.01 17.1505 112.19 17.1505C112.81 17.1505 113.43 17.2005 114.04 17.3105V26.6805C113.96 26.7405 113.88 26.8005 113.79 26.8605C113.19 27.2405 112.48 27.4305 111.62 27.4305M108.52 34.3905C108 34.4105 107.53 34.3905 107.16 34.3705C107.01 34.8805 107.11 35.3905 107.22 35.7205C107.32 36.0205 107.53 36.3005 107.85 36.4105C108 36.4505 108.23 36.4805 108.51 36.4905C108.65 36.4905 108.39 36.4905 108.56 36.4905C111.18 36.4505 112.84 35.7705 114.41 34.4505C114.92 34.0305 115.34 33.5405 115.69 33.0205C116.45 31.8805 116.84 30.5205 116.84 28.9405V15.6005L116.67 15.5505C115.28 15.1705 113.76 14.9805 112.16 14.9805C109.99 14.9805 108.36 15.5805 107.32 16.7605C106.33 17.8805 105.81 19.6505 105.77 22.0205C105.77 22.1005 105.77 22.1805 105.77 22.2705C105.77 23.2605 105.85 24.1405 106.02 24.9205C106.4 26.7605 107.22 28.0505 108.47 28.7905C109.32 29.2905 110.36 29.5505 111.6 29.5505C112.42 29.5505 113.24 29.4105 114.02 29.1205V29.2205C114.02 30.6705 113.54 31.8505 112.61 32.7405C112.54 32.8105 112.46 32.8905 112.38 32.9605C111.52 33.6805 110.86 34.1505 109.47 34.3105C108.91 34.3705 108.73 34.4005 108.52 34.4005V34.3905Z" fill="#F94D12"/>
</g>
<defs>
<clipPath id="clip0_2811_19033">
<rect width="161.6" height="36.49" fill="white"/>
</clipPath>
</defs>
</svg>
