<svg width="168" height="74" viewBox="0 0 168 74" fill="none" xmlns="http://www.w3.org/2000/svg">
<g clip-path="url(#clip0_2811_19023)">
<path d="M0 19.458C0 9.55214 6.7872 2.62305 16.2792 2.62305C24.3264 2.62305 30.0384 7.01259 31.9032 14.2612H24.9312C23.4024 11.133 20.412 9.26623 16.5648 9.26623C10.9872 9.26623 7.1232 13.3362 7.1232 19.458C7.1232 25.5799 10.9368 29.5994 16.5648 29.5994C20.6976 29.5994 23.8224 27.4971 25.116 23.9821H32.088C30.4584 31.6512 24.5616 36.2762 16.2792 36.2762C6.7032 36.293 0 29.3303 0 19.458Z" fill="black"/>
<path d="M35.3301 19.458C35.3301 9.55214 42.3525 2.62305 52.1973 2.62305C62.0421 2.62305 69.0645 9.53532 69.0645 19.458C69.0645 29.3808 62.0421 36.293 52.1973 36.293C42.3525 36.293 35.3301 29.3303 35.3301 19.458ZM61.9245 19.458C61.9245 13.3867 58.0605 9.26623 52.2141 9.26623C46.3677 9.26623 42.4533 13.3362 42.4533 19.458C42.4533 25.5799 46.3509 29.5994 52.2141 29.5994C58.0773 29.5994 61.9245 25.5294 61.9245 19.458Z" fill="black"/>
<path d="M72.9961 25.6303H79.8337C79.9345 28.439 82.2529 30.0703 86.2009 30.0703C90.1489 30.0703 92.2825 28.624 92.2825 26.1853C92.2825 23.7467 90.0481 22.8721 85.3609 22.3508C77.0449 21.409 73.4665 17.7762 73.4665 12.2599C73.4665 6.7435 78.4393 2.62305 85.9321 2.62305C93.4249 2.62305 98.2129 6.7435 98.4313 12.8653H91.7281C91.4929 10.3426 89.5441 8.79532 85.9153 8.79532C82.2865 8.79532 80.3881 10.2417 80.3881 12.3944C80.3881 14.7321 82.1017 15.7076 86.5705 16.229C95.5921 17.2044 99.3553 20.6185 99.3553 26.2358C99.3553 32.2735 94.1977 36.293 86.2849 36.293C78.2041 36.293 73.1809 32.1726 72.9961 25.6303Z" fill="black"/>
<path d="M125.849 3.09375V9.40057H117.247V35.8219H110.275V9.40057H101.623V3.09375H125.849Z" fill="black"/>
<path d="M100.531 40.9863H107.923V41.4572L97.322 74.0004H94.3988L85.478 54.3231L76.5572 74.0004H73.634L62.9492 41.4572V40.9863H70.2404L73.3484 50.9427L75.902 60.2936L83.9828 41.9113H86.822L95.138 60.1927L97.5572 50.9427L100.531 40.9863Z" fill="black"/>
<path d="M125.412 40.7168L140.801 73.26V73.7309H133.274L130.855 68.3491H117.146L114.727 73.7309H107.234V73.26L122.623 40.7168H125.412ZM123.967 51.985L119.885 62.1768H128.066L123.984 51.985H123.967Z" fill="black"/>
<path d="M160.322 40.9856H168V41.5069L156.559 60.6292V73.7138H149.587V60.6292L138.062 41.4565V40.9856H145.875L149.822 47.7128L153.115 54.2047L156.458 47.6119L160.322 40.9688V40.9856Z" fill="black"/>
<path d="M149.722 0L131.443 10.4945V35.8227H167.983V10.4945L149.705 0H149.722Z" fill="#FFC842"/>
<path d="M16.7495 40.9863C7.69434 40.9863 0.335938 48.3863 0.335938 57.5018C0.335938 66.6172 7.67754 74.0004 16.7495 74.0004H56.9183V40.9863H16.7495Z" fill="#FF5F44"/>
</g>
<defs>
<clipPath id="clip0_2811_19023">
<rect width="168" height="74" fill="white"/>
</clipPath>
</defs>
</svg>
