<svg width="22" height="21" viewBox="0 0 22 21" fill="none" xmlns="http://www.w3.org/2000/svg">
<path d="M17.6864 6.82073C17.6975 6.97 17.6975 7.11841 17.6975 7.26682C17.6975 11.8087 14.2405 17.0424 7.92278 17.0424C5.97637 17.0424 4.16813 16.4786 2.64648 15.4994C2.92284 15.531 3.18896 15.5421 3.4764 15.5421C5.08248 15.5421 6.56063 14.9996 7.74196 14.0741C6.2314 14.0426 4.96563 13.0532 4.52893 11.6919C4.74131 11.7234 4.95454 11.7448 5.17801 11.7448C5.48593 11.7448 5.79554 11.7021 6.08298 11.6279C4.5076 11.3089 3.32798 9.92629 3.32798 8.25623V8.21359C3.78601 8.46862 4.3174 8.62812 4.88034 8.64944C3.9549 8.03362 3.34845 6.98023 3.34845 5.78868C3.34845 5.15068 3.51819 4.56556 3.81587 4.0555C5.50725 6.13923 8.04987 7.50138 10.9004 7.65065C10.8475 7.39476 10.8151 7.1295 10.8151 6.86338C10.8151 4.96985 12.347 3.42773 14.2507 3.42773C15.2402 3.42773 16.1332 3.84226 16.761 4.51268C17.5371 4.36341 18.2809 4.07597 18.9411 3.68276C18.686 4.48026 18.1427 5.15068 17.4305 5.57629C18.1222 5.50123 18.7927 5.31018 19.4085 5.04406C18.9411 5.7247 18.3568 6.33115 17.6864 6.82073Z" fill="#352E2E"/>
</svg>
