<svg width="291" height="40" viewBox="0 0 291 40" fill="none" xmlns="http://www.w3.org/2000/svg">
<path d="M2.656 31V8.6H13.6C16.416 8.6 18.528 9.13333 19.936 10.2C21.3653 11.2667 22.08 12.6747 22.08 14.424C22.08 15.5973 21.792 16.6213 21.216 17.496C20.64 18.3493 19.8507 19.0107 18.848 19.48C17.8453 19.9493 16.6933 20.184 15.392 20.184L16 18.872C17.408 18.872 18.656 19.1067 19.744 19.576C20.832 20.024 21.6747 20.696 22.272 21.592C22.8907 22.488 23.2 23.5867 23.2 24.888C23.2 26.808 22.4427 28.312 20.928 29.4C19.4133 30.4667 17.184 31 14.24 31H2.656ZM7.808 27.096H13.856C15.2 27.096 16.2133 26.8827 16.896 26.456C17.6 26.008 17.952 25.304 17.952 24.344C17.952 23.4053 17.6 22.712 16.896 22.264C16.2133 21.7947 15.2 21.56 13.856 21.56H7.424V17.784H12.96C14.2187 17.784 15.1787 17.5707 15.84 17.144C16.5227 16.696 16.864 16.024 16.864 15.128C16.864 14.2533 16.5227 13.6027 15.84 13.176C15.1787 12.728 14.2187 12.504 12.96 12.504H7.808V27.096ZM24.5328 31V7.256H29.5248V31H24.5328ZM39.1818 31.256C37.7524 31.256 36.4724 30.9787 35.3418 30.424C34.2324 29.8693 33.3684 29.0267 32.7498 27.896C32.1311 26.744 31.8218 25.2827 31.8218 23.512V13.784H36.8138V22.776C36.8138 24.2053 37.1124 25.2613 37.7098 25.944C38.3284 26.6053 39.1924 26.936 40.3018 26.936C41.0698 26.936 41.7524 26.776 42.3498 26.456C42.9471 26.1147 43.4164 25.6027 43.7578 24.92C44.0991 24.216 44.2698 23.3413 44.2698 22.296V13.784H49.2618V31H44.5258V26.264L45.3898 27.64C44.8138 28.8347 43.9604 29.7413 42.8298 30.36C41.7204 30.9573 40.5044 31.256 39.1818 31.256ZM60.1905 31.256C58.2278 31.256 56.4998 30.872 55.0065 30.104C53.5345 29.336 52.3932 28.2907 51.5825 26.968C50.7718 25.624 50.3665 24.0987 50.3665 22.392C50.3665 20.664 50.7612 19.1387 51.5505 17.816C52.3612 16.472 53.4598 15.4267 54.8465 14.68C56.2332 13.912 57.8012 13.528 59.5505 13.528C61.2358 13.528 62.7505 13.8907 64.0945 14.616C65.4598 15.32 66.5372 16.344 67.3265 17.688C68.1158 19.0107 68.5105 20.6 68.5105 22.456C68.5105 22.648 68.4998 22.872 68.4785 23.128C68.4572 23.3627 68.4358 23.5867 68.4145 23.8H54.4305V20.888H65.7905L63.8705 21.752C63.8705 20.856 63.6892 20.0773 63.3265 19.416C62.9638 18.7547 62.4625 18.2427 61.8225 17.88C61.1825 17.496 60.4358 17.304 59.5825 17.304C58.7292 17.304 57.9718 17.496 57.3105 17.88C56.6705 18.2427 56.1692 18.7653 55.8065 19.448C55.4438 20.1093 55.2625 20.8987 55.2625 21.816V22.584C55.2625 23.5227 55.4652 24.3547 55.8705 25.08C56.2972 25.784 56.8838 26.328 57.6305 26.712C58.3985 27.0747 59.2945 27.256 60.3185 27.256C61.2358 27.256 62.0358 27.1173 62.7185 26.84C63.4225 26.5627 64.0625 26.1467 64.6385 25.592L67.2945 28.472C66.5052 29.368 65.5132 30.0613 64.3185 30.552C63.1238 31.0213 61.7478 31.256 60.1905 31.256ZM92.1285 8.6H97.3125V31H92.1285V8.6ZM81.9525 31H76.7685V8.6H81.9525V31ZM92.5125 21.816H81.5685V17.432H92.5125V21.816ZM110.58 31V27.64L110.26 26.904V20.888C110.26 19.8213 109.93 18.9893 109.268 18.392C108.628 17.7947 107.636 17.496 106.292 17.496C105.375 17.496 104.468 17.6453 103.572 17.944C102.698 18.2213 101.951 18.6053 101.332 19.096L99.5402 15.608C100.479 14.9467 101.61 14.4347 102.932 14.072C104.255 13.7093 105.599 13.528 106.964 13.528C109.588 13.528 111.626 14.1467 113.076 15.384C114.527 16.6213 115.252 18.552 115.252 21.176V31H110.58ZM105.332 31.256C103.988 31.256 102.836 31.032 101.876 30.584C100.916 30.1147 100.18 29.4853 99.6682 28.696C99.1562 27.9067 98.9002 27.0213 98.9002 26.04C98.9002 25.016 99.1456 24.12 99.6362 23.352C100.148 22.584 100.948 21.9867 102.036 21.56C103.124 21.112 104.543 20.888 106.292 20.888H110.868V23.8H106.836C105.663 23.8 104.852 23.992 104.404 24.376C103.978 24.76 103.764 25.24 103.764 25.816C103.764 26.456 104.01 26.968 104.5 27.352C105.012 27.7147 105.706 27.896 106.58 27.896C107.412 27.896 108.159 27.704 108.82 27.32C109.482 26.9147 109.962 26.328 110.26 25.56L111.028 27.864C110.666 28.9733 110.004 29.816 109.044 30.392C108.084 30.968 106.847 31.256 105.332 31.256ZM121.89 31L114.658 13.784H119.81L125.826 28.6H123.266L129.506 13.784H134.306L127.042 31H121.89ZM142.178 31.256C140.215 31.256 138.487 30.872 136.994 30.104C135.522 29.336 134.381 28.2907 133.57 26.968C132.759 25.624 132.354 24.0987 132.354 22.392C132.354 20.664 132.749 19.1387 133.538 17.816C134.349 16.472 135.447 15.4267 136.834 14.68C138.221 13.912 139.789 13.528 141.538 13.528C143.223 13.528 144.738 13.8907 146.082 14.616C147.447 15.32 148.525 16.344 149.314 17.688C150.103 19.0107 150.498 20.6 150.498 22.456C150.498 22.648 150.487 22.872 150.466 23.128C150.445 23.3627 150.423 23.5867 150.402 23.8H136.418V20.888H147.778L145.858 21.752C145.858 20.856 145.677 20.0773 145.314 19.416C144.951 18.7547 144.45 18.2427 143.81 17.88C143.17 17.496 142.423 17.304 141.57 17.304C140.717 17.304 139.959 17.496 139.298 17.88C138.658 18.2427 138.157 18.7653 137.794 19.448C137.431 20.1093 137.25 20.8987 137.25 21.816V22.584C137.25 23.5227 137.453 24.3547 137.858 25.08C138.285 25.784 138.871 26.328 139.618 26.712C140.386 27.0747 141.282 27.256 142.306 27.256C143.223 27.256 144.023 27.1173 144.706 26.84C145.41 26.5627 146.05 26.1467 146.626 25.592L149.282 28.472C148.493 29.368 147.501 30.0613 146.306 30.552C145.111 31.0213 143.735 31.256 142.178 31.256ZM162.045 13.528C163.411 13.528 164.627 13.8053 165.693 14.36C166.781 14.8933 167.635 15.7253 168.253 16.856C168.872 17.9653 169.181 19.3947 169.181 21.144V31H164.189V21.912C164.189 20.5253 163.88 19.5013 163.261 18.84C162.664 18.1787 161.811 17.848 160.701 17.848C159.912 17.848 159.197 18.0187 158.557 18.36C157.939 18.68 157.448 19.1813 157.085 19.864C156.744 20.5467 156.573 21.4213 156.573 22.488V31H151.581V13.784H156.349V18.552L155.453 17.112C156.072 15.96 156.957 15.0747 158.109 14.456C159.261 13.8373 160.573 13.528 162.045 13.528ZM178.641 31V8.6H189.585C192.401 8.6 194.513 9.13333 195.921 10.2C197.35 11.2667 198.065 12.6747 198.065 14.424C198.065 15.5973 197.777 16.6213 197.201 17.496C196.625 18.3493 195.836 19.0107 194.833 19.48C193.83 19.9493 192.678 20.184 191.377 20.184L191.985 18.872C193.393 18.872 194.641 19.1067 195.729 19.576C196.817 20.024 197.66 20.696 198.257 21.592C198.876 22.488 199.185 23.5867 199.185 24.888C199.185 26.808 198.428 28.312 196.913 29.4C195.398 30.4667 193.169 31 190.225 31H178.641ZM183.793 27.096H189.841C191.185 27.096 192.198 26.8827 192.881 26.456C193.585 26.008 193.937 25.304 193.937 24.344C193.937 23.4053 193.585 22.712 192.881 22.264C192.198 21.7947 191.185 21.56 189.841 21.56H183.409V17.784H188.945C190.204 17.784 191.164 17.5707 191.825 17.144C192.508 16.696 192.849 16.024 192.849 15.128C192.849 14.2533 192.508 13.6027 191.825 13.176C191.164 12.728 190.204 12.504 188.945 12.504H183.793V27.096ZM200.518 31V13.784H205.286V18.648L204.614 17.24C205.126 16.024 205.947 15.1067 207.078 14.488C208.208 13.848 209.584 13.528 211.206 13.528V18.136C210.992 18.1147 210.8 18.104 210.63 18.104C210.459 18.0827 210.278 18.072 210.086 18.072C208.72 18.072 207.611 18.4667 206.758 19.256C205.926 20.024 205.51 21.2293 205.51 22.872V31H200.518ZM221.369 31V27.64L221.049 26.904V20.888C221.049 19.8213 220.718 18.9893 220.057 18.392C219.417 17.7947 218.425 17.496 217.081 17.496C216.164 17.496 215.257 17.6453 214.361 17.944C213.486 18.2213 212.74 18.6053 212.121 19.096L210.329 15.608C211.268 14.9467 212.398 14.4347 213.721 14.072C215.044 13.7093 216.388 13.528 217.753 13.528C220.377 13.528 222.414 14.1467 223.865 15.384C225.316 16.6213 226.041 18.552 226.041 21.176V31H221.369ZM216.121 31.256C214.777 31.256 213.625 31.032 212.665 30.584C211.705 30.1147 210.969 29.4853 210.457 28.696C209.945 27.9067 209.689 27.0213 209.689 26.04C209.689 25.016 209.934 24.12 210.425 23.352C210.937 22.584 211.737 21.9867 212.825 21.56C213.913 21.112 215.332 20.888 217.081 20.888H221.657V23.8H217.625C216.452 23.8 215.641 23.992 215.193 24.376C214.766 24.76 214.553 25.24 214.553 25.816C214.553 26.456 214.798 26.968 215.289 27.352C215.801 27.7147 216.494 27.896 217.369 27.896C218.201 27.896 218.948 27.704 219.609 27.32C220.27 26.9147 220.75 26.328 221.049 25.56L221.817 27.864C221.454 28.9733 220.793 29.816 219.833 30.392C218.873 30.968 217.636 31.256 216.121 31.256ZM238.783 13.528C240.148 13.528 241.364 13.8053 242.431 14.36C243.519 14.8933 244.372 15.7253 244.991 16.856C245.61 17.9653 245.919 19.3947 245.919 21.144V31H240.927V21.912C240.927 20.5253 240.618 19.5013 239.999 18.84C239.402 18.1787 238.548 17.848 237.439 17.848C236.65 17.848 235.935 18.0187 235.295 18.36C234.676 18.68 234.186 19.1813 233.823 19.864C233.482 20.5467 233.311 21.4213 233.311 22.488V31H228.319V13.784H233.087V18.552L232.191 17.112C232.81 15.96 233.695 15.0747 234.847 14.456C235.999 13.8373 237.311 13.528 238.783 13.528ZM255.721 31.256C254.1 31.256 252.638 30.8933 251.337 30.168C250.036 29.4213 249.001 28.3867 248.233 27.064C247.486 25.7413 247.113 24.184 247.113 22.392C247.113 20.5787 247.486 19.0107 248.233 17.688C249.001 16.3653 250.036 15.3413 251.337 14.616C252.638 13.8907 254.1 13.528 255.721 13.528C257.172 13.528 258.441 13.848 259.529 14.488C260.617 15.128 261.46 16.0987 262.057 17.4C262.654 18.7013 262.953 20.3653 262.953 22.392C262.953 24.3973 262.665 26.0613 262.089 27.384C261.513 28.6853 260.681 29.656 259.593 30.296C258.526 30.936 257.236 31.256 255.721 31.256ZM256.585 27.16C257.396 27.16 258.132 26.968 258.793 26.584C259.454 26.2 259.977 25.656 260.361 24.952C260.766 24.2267 260.969 23.3733 260.969 22.392C260.969 21.3893 260.766 20.536 260.361 19.832C259.977 19.128 259.454 18.584 258.793 18.2C258.132 17.816 257.396 17.624 256.585 17.624C255.753 17.624 255.006 17.816 254.345 18.2C253.684 18.584 253.15 19.128 252.745 19.832C252.361 20.536 252.169 21.3893 252.169 22.392C252.169 23.3733 252.361 24.2267 252.745 24.952C253.15 25.656 253.684 26.2 254.345 26.584C255.006 26.968 255.753 27.16 256.585 27.16ZM261.097 31V27.48L261.193 22.36L260.873 17.272V7.256H265.865V31H261.097ZM274.037 31.256C272.565 31.256 271.147 31.0853 269.781 30.744C268.437 30.3813 267.371 29.9333 266.581 29.4L268.245 25.816C269.035 26.3067 269.963 26.712 271.029 27.032C272.117 27.3307 273.184 27.48 274.229 27.48C275.381 27.48 276.192 27.3413 276.661 27.064C277.152 26.7867 277.397 26.4027 277.397 25.912C277.397 25.5067 277.205 25.208 276.821 25.016C276.459 24.8027 275.968 24.6427 275.349 24.536C274.731 24.4293 274.048 24.3227 273.301 24.216C272.576 24.1093 271.84 23.9707 271.093 23.8C270.347 23.608 269.664 23.3307 269.045 22.968C268.427 22.6053 267.925 22.1147 267.541 21.496C267.179 20.8773 266.997 20.0773 266.997 19.096C266.997 18.008 267.307 17.048 267.925 16.216C268.565 15.384 269.483 14.7333 270.677 14.264C271.872 13.7733 273.301 13.528 274.965 13.528C276.139 13.528 277.333 13.656 278.549 13.912C279.765 14.168 280.779 14.5413 281.589 15.032L279.925 18.584C279.093 18.0933 278.251 17.7627 277.397 17.592C276.565 17.4 275.755 17.304 274.965 17.304C273.856 17.304 273.045 17.4533 272.533 17.752C272.021 18.0507 271.765 18.4347 271.765 18.904C271.765 19.3307 271.947 19.6507 272.309 19.864C272.693 20.0773 273.195 20.248 273.813 20.376C274.432 20.504 275.104 20.6213 275.829 20.728C276.576 20.8133 277.323 20.952 278.069 21.144C278.816 21.336 279.488 21.6133 280.085 21.976C280.704 22.3173 281.205 22.7973 281.589 23.416C281.973 24.0133 282.165 24.8027 282.165 25.784C282.165 26.8507 281.845 27.8 281.205 28.632C280.565 29.4427 279.637 30.0827 278.421 30.552C277.227 31.0213 275.765 31.256 274.037 31.256Z" fill="#434343"/>
</svg>
